<?xml version="1.0" encoding="UTF-8" standalone="no"?>
<!-- Created with Inkscape (http://www.inkscape.org/) -->

<svg
   xmlns:dc="http://purl.org/dc/elements/1.1/"
   xmlns:cc="http://creativecommons.org/ns#"
   xmlns:rdf="http://www.w3.org/1999/02/22-rdf-syntax-ns#"
   xmlns:svg="http://www.w3.org/2000/svg"
   xmlns="http://www.w3.org/2000/svg"
   xmlns:sodipodi="http://sodipodi.sourceforge.net/DTD/sodipodi-0.dtd"
   xmlns:inkscape="http://www.inkscape.org/namespaces/inkscape"
   width="64"
   height="64"
   viewBox="0 0 64 64"
   id="svg3405"
   version="1.1"
   inkscape:version="0.91 r13725"
   sodipodi:docname="edit.svg">
  <defs
     id="defs3407" />
  <sodipodi:namedview
     id="base"
     pagecolor="#ffffff"
     bordercolor="#666666"
     borderopacity="1.0"
     inkscape:pageopacity="0.0"
     inkscape:pageshadow="2"
     inkscape:zoom="1.4"
     inkscape:cx="-33.836577"
     inkscape:cy="68.407425"
     inkscape:document-units="px"
     inkscape:current-layer="layer1"
     showgrid="false"
     fit-margin-top="0"
     fit-margin-left="0"
     fit-margin-right="0"
     fit-margin-bottom="0"
     inkscape:window-width="1918"
     inkscape:window-height="1040"
     inkscape:window-x="0"
     inkscape:window-y="19"
     inkscape:window-maximized="1" />
  <metadata
     id="metadata3410">
    <rdf:RDF>
      <cc:Work
         rdf:about="">
        <dc:format>image/svg+xml</dc:format>
        <dc:type
           rdf:resource="http://purl.org/dc/dcmitype/StillImage" />
        <dc:title></dc:title>
      </cc:Work>
    </rdf:RDF>
  </metadata>
  <g
     inkscape:label="Layer 1"
     inkscape:groupmode="layer"
     id="layer1"
     transform="translate(-188.74231,-507.66538)">
    <g
       id="g3377"
       transform="translate(-359.77798,-59.246938)">
      <path
         id="path4207"
         d="m 552.98827,579.64923 c 2.53906,2.49023 4.93163,4.85352 7.33887,7.20215 1.54785,1.50391 3.16894,1.50879 4.71191,0.0293 0.98144,-0.94727 1.96778,-1.89941 2.93457,-2.86621 1.36231,-1.36719 1.36231,-3.00782 -0.0244,-4.37012 -2.54394,-2.5 -5.1123,-4.98535 -7.73437,-7.53906 5.39551,-1.92384 10.26367,-1.17676 14.32617,2.51953 3.19824,2.90527 4.86327,6.63086 3.96972,11.06445 -0.16601,0.84473 0.41017,1.21093 0.88379,1.67481 9.03809,8.81836 18.07129,17.63671 27.11914,26.44531 2.22168,2.16309 2.96387,4.80469 1.93848,7.60743 -1.00098,2.71972 -2.95898,4.64355 -6.15235,5.18553 -2.80273,0.47364 -5.05858,-0.34667 -6.97753,-2.21191 -8.90625,-8.64746 -17.80761,-17.30956 -26.65039,-26.0205 -1.05468,-1.03516 -2.0752,-1.5088 -3.57422,-1.44044 -5.60546,0.26368 -10.77636,-3.90625 -12.2998,-8.69629 -0.89844,-2.81738 -0.97169,-5.61523 0.19042,-8.58398"
         style="fill:#8cb3d1;fill-opacity:1;fill-rule:nonzero;stroke:none"
         inkscape:connector-curvature="0" />
      <path
         id="path4209"
         d="m 588.90624,592.90606 c -2.39259,-2.34375 -2.39259,-2.34375 -0.0489,-4.6289 4.10645,-4.00391 8.21778,-8.00293 12.30958,-12.01659 0.4834,-0.47853 1.50391,-0.94728 0.63476,-1.78712 -0.91309,-0.88867 -1.44531,0.11713 -1.97754,0.62988 -4.57031,4.4336 -9.1748,8.8379 -13.64746,13.35937 -1.05469,1.06934 -1.38671,0.32228 -2.07031,-0.20995 -0.86425,-0.67871 -0.8496,-1.11817 -0.0293,-1.89942 4.67772,-4.47265 9.27245,-9.02832 13.92577,-13.53026 2.13379,-2.06544 4.68261,-2.13868 7.04101,-1.23048 2.3584,0.91309 3.87697,3.39844 3.87697,5.71778 0.005,2.05566 -0.74708,3.66698 -2.1875,5.06836 -4.40919,4.29198 -8.8086,8.59375 -13.22755,12.88573 -0.38085,0.37111 -0.74706,1.10841 -1.38671,0.68848 -0.6836,-0.4541 -1.28907,-1.09862 -1.73829,-1.77734 -0.20019,-0.30762 0.43946,-0.63477 0.72755,-0.91309 4.55077,-4.45312 9.11132,-8.89648 13.66698,-13.33984 0.30274,-0.29786 0.67872,-0.56153 0.84962,-0.91797 0.13671,-0.30274 0.24902,-0.72266 -0.19532,-1.04981 -0.38086,-0.27831 -0.70312,-0.25879 -1.0254,-0.0244 -0.37597,0.27343 -0.73241,0.58106 -1.06445,0.90332 -4.79003,4.66309 -9.57031,9.33105 -14.43358,14.07226"
         style="fill:#8cb3d1;fill-opacity:1;fill-rule:nonzero;stroke:none"
         inkscape:connector-curvature="0" />
      <path
         id="path4211"
         d="m 571.15233,604.91779 c 1.09375,0.97656 2.15332,1.91894 3.21288,2.86621 -0.96191,0.91308 -2.0166,1.75782 -2.8662,2.75879 -1.09374,1.29394 -2.19727,2.54883 -3.62793,3.49609 -1.90918,1.26953 -2.48046,3.21288 -2.75879,5.27832 -0.0489,0.38574 -0.0928,0.72754 -0.41504,0.93261 -3.35937,2.14357 -6.73828,4.2627 -10.07812,6.43556 -0.39551,0.25389 -0.4248,-0.0341 -0.57618,-0.15137 -2.40233,-1.78224 -2.38281,-2.06055 -0.72753,-4.56055 1.49413,-2.25586 3.25195,-4.35058 4.44823,-6.78711 0.66407,-1.34765 1.9336,-1.61133 3.24708,-1.68945 1.1084,-0.0684 1.91895,-0.52735 2.67579,-1.2793 2.49511,-2.48046 5.03417,-4.92676 7.46581,-7.2998"
         style="fill:#8cb3d1;fill-opacity:1;fill-rule:nonzero;stroke:none"
         inkscape:connector-curvature="0" />
      <path
         id="path4213"
         d="m 605.3662,619.50275 c -0.28321,2.36328 -1.81641,3.82324 -4.05762,3.92089 -2.07519,0.0879 -4.40918,-2.16796 -4.22363,-4.0625 0.23925,-2.37793 1.64063,-4.02344 4.28223,-3.9746 2.31933,0.039 3.95507,1.87988 3.99902,4.11621"
         style="fill:#8cb3d1;fill-opacity:1;fill-rule:nonzero;stroke:none"
         inkscape:connector-curvature="0" />
    </g>
  </g>
</svg>
