<?xml version="1.0" encoding="UTF-8" standalone="no"?>
<!-- Created with Inkscape (http://www.inkscape.org/) -->

<svg
   xmlns:dc="http://purl.org/dc/elements/1.1/"
   xmlns:cc="http://creativecommons.org/ns#"
   xmlns:rdf="http://www.w3.org/1999/02/22-rdf-syntax-ns#"
   xmlns:svg="http://www.w3.org/2000/svg"
   xmlns="http://www.w3.org/2000/svg"
   xmlns:sodipodi="http://sodipodi.sourceforge.net/DTD/sodipodi-0.dtd"
   xmlns:inkscape="http://www.inkscape.org/namespaces/inkscape"
   width="45"
   height="45"
   id="svg3937"
   version="1.1"
   inkscape:version="0.48.4 r9939"
   sodipodi:docname="New document 8">
  <defs
     id="defs3939" />
  <sodipodi:namedview
     id="base"
     pagecolor="#000000"
     bordercolor="#666666"
     borderopacity="1.0"
     inkscape:pageopacity="0"
     inkscape:pageshadow="2"
     inkscape:zoom="7.9195959"
     inkscape:cx="28.131736"
     inkscape:cy="23.298993"
     inkscape:document-units="px"
     inkscape:current-layer="layer1"
     showgrid="false"
     inkscape:snap-bbox="true"
     inkscape:bbox-paths="true"
     inkscape:window-width="1185"
     inkscape:window-height="659"
     inkscape:window-x="426"
     inkscape:window-y="164"
     inkscape:window-maximized="0" />
  <metadata
     id="metadata3942">
    <rdf:RDF>
      <cc:Work
         rdf:about="">
        <dc:format>image/svg+xml</dc:format>
        <dc:type
           rdf:resource="http://purl.org/dc/dcmitype/StillImage" />
        <dc:title></dc:title>
      </cc:Work>
    </rdf:RDF>
  </metadata>
  <g
     inkscape:label="Layer 1"
     inkscape:groupmode="layer"
     id="layer1"
     transform="translate(0,-1007.3622)">
    <g
       id="g4563"
       transform="translate(0,-1.109375)">
      <g
         id="g4558">
        <path
           style="fill:#ffffff;fill-opacity:1;stroke:none"
           d="M 5.15625,10 C 3.6913461,10 2.5,11.191346 2.5,12.65625 l 0,19.6875 C 2.5,33.808654 3.6913461,35 5.15625,35 l 34.6875,0 C 41.308654,35 42.5,33.808654 42.5,32.34375 l 0,-19.6875 C 42.5,11.191346 41.308654,10 39.84375,10 L 5.15625,10 z M 5,12.53125 l 35,0 0,20 -35,0 0,-20 z"
           transform="translate(0,1007.3622)"
           id="rect3945"
           inkscape:connector-curvature="0" />
        <rect
           style="fill:#ffffff;fill-opacity:0.39215686;stroke:none"
           id="rect3947"
           width="35"
           height="20"
           x="5"
           y="1019.8622"
           ry="0" />
        <path
           style="fill:#ffffff;fill-opacity:1;stroke:none"
           d="m 18.78125,35.40625 c -1.53661,0.379809 -2.971465,0.991557 -4.28125,1.8125 l 15.65625,0 c -1.313005,-0.822961 -2.762825,-1.432953 -4.3125,-1.8125 l -7.0625,0 z"
           transform="translate(0,1007.3622)"
           id="path3949"
           inkscape:connector-curvature="0" />
      </g>
      <g
         style="fill:#000000"
         transform="matrix(2.0353985,0,0,1.1630828,-99.321734,-141.54581)"
         id="g4007">
        <path
           style="fill:#ffffff;fill-opacity:1;stroke:none"
           d="m 65.533646,1001.4758 -2.032932,0 0.662913,0.6629 -2.253903,2.2539 0.707107,0.7071 2.253903,-2.2539 0.662912,0.6629 0,-2.0329 z"
           id="rect3958"
           inkscape:connector-curvature="0" />
        <path
           style="fill:#ffffff;fill-opacity:1;stroke:none"
           d="m 65.533646,1012.84 0,-2.033 -0.662836,0.6629 -2.253901,-2.2539 -0.707104,0.7071 2.253902,2.2539 -0.662906,0.6629 2.032845,1e-4 z"
           id="rect3958-5"
           inkscape:connector-curvature="0" />
        <path
           style="fill:#ffffff;fill-opacity:1;stroke:none"
           d="m 54.16943,1001.4758 2.032932,0 -0.662913,0.6629 2.253903,2.2539 -0.707107,0.7071 -2.253903,-2.2539 -0.662912,0.6629 0,-2.0329 z"
           id="rect3958-51"
           inkscape:connector-curvature="0" />
        <path
           style="fill:#ffffff;fill-opacity:1;stroke:none"
           d="m 54.16943,1012.84 0,-2.033 0.662836,0.6629 2.253901,-2.2539 0.707104,0.7071 -2.253902,2.2539 0.662906,0.6629 -2.032845,1e-4 z"
           id="rect3958-5-7"
           inkscape:connector-curvature="0" />
      </g>
    </g>
  </g>
</svg>
