<svg width="45" height="45" version="1.1" xmlns="http://www.w3.org/2000/svg">
  <g fill="#fff">
    <path d="m5.1562 8.8906c-1.4649 0-2.6562 1.1913-2.6562 2.6562v19.688c0 1.4649 1.1913 2.6562 2.6562 2.6562h34.688c1.4649 0 2.6562-1.1913 2.6562-2.6562v-19.688c0-1.4649-1.1913-2.6562-2.6562-2.6562h-34.688m-0.15625 2.5312h35v20h-35v-20"/>
    <rect transform="translate(0 -1008.5)" x="5" y="1019.9" width="35" height="20" ry="0" fill-opacity=".39216"/>
    <path d="m18.781 34.297c-1.5366 0.37981-2.9715 0.99156-4.2812 1.8125h15.656c-1.313-0.82296-2.7628-1.433-4.3125-1.8125h-7.0625"/>
    <g>
      <path d="m34.065 14.782h-4.1378l1.3493 0.77101-4.5876 2.6215 1.4392 0.82242 4.5876-2.6215s1.3493 0.77101 1.3493 0.77101v-2.3644"/>
      <path d="m34.065 27.999v-2.3645s-1.3491 0.77101-1.3491 0.77101l-4.5876-2.6215-1.4392 0.82242 4.5876 2.6215-1.3493 0.77101 4.1376 1.1631e-4"/>
      <path d="m10.935 14.782h4.1378l-1.3493 0.77101 4.5876 2.6215-1.4392 0.82242-4.5876-2.6215s-1.3493 0.77101-1.3493 0.77101v-2.3644"/>
      <path d="m10.935 27.999v-2.3645s1.3491 0.77101 1.3491 0.77101l4.5876-2.6215s1.4392 0.82242 1.4392 0.82242l-4.5876 2.6215 1.3493 0.77101-4.1376 1.1631e-4"/>
    </g>
  </g>
</svg>
