<svg width="45" height="45" version="1.1" xmlns="http://www.w3.org/2000/svg">
  <path d="m24.139 3.834-1.4785 4.3223c-1.1018 0.0088-2.2727 0.13204-3.2031 0.33594l-2.3281-3.9473c-1.4974 0.45304-2.9327 1.091-4.2715 1.9004l1.3457 4.3672c-0.87808 0.62225-1.685 1.3403-2.4023 2.1426l-4.1953-1.8223c-0.9476 1.2456-1.7358 2.6055-2.3457 4.0469l3.6523 2.7383c-0.34895 1.0215-0.58154 2.0787-0.69336 3.1523l-4.4531 0.98828c-0.00716 0.14696-0.011931 0.29432-0.015625 0.44141 0.00628 1.4179 0.17336 2.8307 0.49805 4.2109l4.5703 0.070312c0.32171 1.0271 0.75826 2.0138 1.3008 2.9434l-3.0391 3.4355c0.89502 1.2828 1.9464 2.4492 3.1309 3.4707l3.7363-2.6289c0.86307 0.64582 1.7958 1.192 2.7812 1.6289l-0.43555 4.541c1.4754 0.52082 3.0099 0.85458 4.5684 0.99414l1.4766-4.3223c0.05369 3e-3 0.10838 0.005313 0.16211 0.007812 1.024-0.0061 2.0436-0.12048 3.043-0.34375l2.3281 3.9473c1.4974-0.45304 2.9327-1.091 4.2715-1.9004l-1.3457-4.3672c0.87808-0.62225 1.685-1.3403 2.4023-2.1426l4.1953 1.8223c0.9476-1.2456 1.7358-2.6055 2.3457-4.0469l-3.6523-2.7383c0.34895-1.0215 0.58154-2.0787 0.69336-3.1523l4.4531-0.98828c0.0072-0.14698 0.011925-0.29432 0.015625-0.44141-0.0062-1.4179-0.17336-2.8307-0.49805-4.2109l-4.5703-0.070312c-0.32171-1.0271-0.75826-2.0138-1.3008-2.9434l3.0391-3.4355c-0.89502-1.2828-1.9464-2.4492-3.1309-3.4707l-3.7363 2.6289c-0.86307-0.64582-1.7958-1.192-2.7812-1.6289l0.43555-4.541c-1.4754-0.52082-3.0099-0.85457-4.5684-0.99414zm-1.6387 7.8789a10.786 10.786 0 0 1 10.787 10.787 10.786 10.786 0 0 1-10.787 10.787 10.786 10.786 0 0 1-10.787-10.787 10.786 10.786 0 0 1 10.787-10.787z" fill="#fff"/>
</svg>
