<svg xmlns="http://www.w3.org/2000/svg" version="1.1" height="100%" width="100%"><path d="m49.998 8.7797e-4c-0.060547 0.0018431-0.12109 0.0037961-0.18164 0.0058593-0.1251 0.0015881-0.25012 0.0061465-0.375 0.013672h-0.001954c-27.388 0.30599-49.432 22.59-49.439 49.98 0.020074 2.6488 0.25061 5.292 0.68945 7.904 3.8792-24.231 24.77-42.065 49.311-42.096v-0.0058582h0.001954c4.3638 3.0803e-4 7.9013-3.5366 7.9021-7.9002 1.474e-4 -2.0958-0.83235-4.106-2.3144-5.5879-1.482-1.482-3.492-2.3145-5.5879-2.3144-6.5007e-4 -7.9369e-8 -0.0013001-7.9369e-8 -0.001954 0" class="semiFill"/></svg>
