<?xml version="1.0" encoding="UTF-8" standalone="no"?><svg xmlns:dc="http://purl.org/dc/elements/1.1/" xmlns:cc="http://creativecommons.org/ns#" xmlns:rdf="http://www.w3.org/1999/02/22-rdf-syntax-ns#" xmlns:svg="http://www.w3.org/2000/svg" xmlns="http://www.w3.org/2000/svg" width="45" height="45" id="svg3937" version="1.1"> <defs id="defs3939" /> <metadata id="metadata3942"> <rdf:RDF> <cc:Work rdf:about=""> <dc:format>image/svg+xml</dc:format> <dc:type rdf:resource="http://purl.org/dc/dcmitype/StillImage" /> <dc:title></dc:title> </cc:Work> </rdf:RDF> </metadata> <path id="rect4511" d="M 0 0 L 0 45 L 45 45 L 45 0 L 0 0 z M 22.5 11.25 A 11.25 11.25 0 0 1 33.75 22.5 A 11.25 11.25 0 0 1 22.5 33.75 A 11.25 11.25 0 0 1 14.550781 30.449219 L 12.714844 32.285156 L 12.714844 25.785156 L 19.214844 25.785156 L 17.376953 27.623047 A 7.25 7.25 0 0 0 22.5 29.75 A 7.25 7.25 0 0 0 29.75 22.5 A 7.25 7.25 0 0 0 22.5 15.25 A 7.25 7.25 0 0 0 17.376953 17.376953 L 14.550781 14.550781 A 11.25 11.25 0 0 1 22.5 11.25 z " style="opacity:1;fill:#000000;fill-opacity:1;fill-rule:evenodd;stroke:none;stroke-width:1.5;stroke-miterlimit:4;stroke-dasharray:none;stroke-dashoffset:0;stroke-opacity:1" /> <path id="path4495" d="M 22.5 11.25 A 11.25 11.25 0 0 0 14.550781 14.550781 L 17.376953 17.376953 A 7.25 7.25 0 0 1 22.5 15.25 A 7.25 7.25 0 0 1 29.75 22.5 A 7.25 7.25 0 0 1 22.5 29.75 A 7.25 7.25 0 0 1 17.376953 27.623047 L 19.214844 25.785156 L 12.714844 25.785156 L 12.714844 32.285156 L 14.550781 30.449219 A 11.25 11.25 0 0 0 22.5 33.75 A 11.25 11.25 0 0 0 33.75 22.5 A 11.25 11.25 0 0 0 22.5 11.25 z " style="opacity:1;fill:none;fill-opacity:0.8584475;fill-rule:evenodd;stroke:#ffffff;stroke-width:1.5;stroke-miterlimit:4;stroke-dasharray:none;stroke-dashoffset:0;stroke-opacity:1" /></svg>
