<?xml version="1.0" encoding="UTF-8" standalone="no"?>
<svg
   xmlns:dc="http://purl.org/dc/elements/1.1/"
   xmlns:cc="http://creativecommons.org/ns#"
   xmlns:rdf="http://www.w3.org/1999/02/22-rdf-syntax-ns#"
   xmlns:svg="http://www.w3.org/2000/svg"
   xmlns="http://www.w3.org/2000/svg"
   xmlns:sodipodi="http://sodipodi.sourceforge.net/DTD/sodipodi-0.dtd"
   xmlns:inkscape="http://www.inkscape.org/namespaces/inkscape"
   version="1.1"
   id="svg3937"
   height="45"
   width="45"
   inkscape:version="0.91 r13725"
   sodipodi:docname="loop.svg">
  <sodipodi:namedview
     pagecolor="#8bff39"
     bordercolor="#666666"
     borderopacity="1"
     objecttolerance="10"
     gridtolerance="10"
     guidetolerance="10"
     inkscape:pageopacity="1"
     inkscape:pageshadow="2"
     inkscape:window-width="1920"
     inkscape:window-height="1055"
     id="namedview3591"
     showgrid="false"
     showguides="true"
     inkscape:snap-bbox="true"
     inkscape:bbox-paths="false"
     inkscape:bbox-nodes="true"
     inkscape:snap-bbox-edge-midpoints="true"
     inkscape:snap-bbox-midpoints="true"
     inkscape:guide-bbox="true"
     inkscape:snap-object-midpoints="true"
     inkscape:object-paths="true"
     inkscape:snap-intersection-paths="true"
     inkscape:object-nodes="true"
     inkscape:snap-smooth-nodes="true"
     inkscape:snap-midpoints="true"
     inkscape:zoom="14.833529"
     inkscape:cx="30.216329"
     inkscape:cy="21.135445"
     inkscape:window-x="0"
     inkscape:window-y="0"
     inkscape:window-maximized="1"
     inkscape:current-layer="svg3937">
    <sodipodi:guide
       position="0,0"
       orientation="0,45"
       id="guide3615" />
    <sodipodi:guide
       position="45,0"
       orientation="-45,0"
       id="guide3617" />
    <sodipodi:guide
       position="45,45"
       orientation="0,-45"
       id="guide3619" />
    <sodipodi:guide
       position="0,45"
       orientation="45,0"
       id="guide3621" />
    <sodipodi:guide
       position="0,0"
       orientation="-0.70710678,0.70710678"
       id="guide3624" />
    <sodipodi:guide
       position="0,45"
       orientation="0.70710678,0.70710678"
       id="guide4491" />
  </sodipodi:namedview>
  <defs
     id="defs3939" />
  <metadata
     id="metadata3942">
    <rdf:RDF>
      <cc:Work
         rdf:about="">
        <dc:format>image/svg+xml</dc:format>
        <dc:type
           rdf:resource="http://purl.org/dc/dcmitype/StillImage" />
        <dc:title></dc:title>
      </cc:Work>
    </rdf:RDF>
  </metadata>
  <path
     style="opacity:1;fill:#000000;fill-opacity:1;fill-rule:evenodd;stroke:none;stroke-width:1.5;stroke-miterlimit:4;stroke-dasharray:none;stroke-dashoffset:0;stroke-opacity:1"
     d="M 0 0 L 0 45 L 45 45 L 45 0 L 0 0 z M 22.5 11.25 A 11.25 11.25 0 0 1 33.75 22.5 A 11.25 11.25 0 0 1 22.5 33.75 A 11.25 11.25 0 0 1 14.550781 30.449219 L 12.714844 32.285156 L 12.714844 25.785156 L 19.214844 25.785156 L 17.376953 27.623047 A 7.25 7.25 0 0 0 22.5 29.75 A 7.25 7.25 0 0 0 29.75 22.5 A 7.25 7.25 0 0 0 22.5 15.25 A 7.25 7.25 0 0 0 17.376953 17.376953 L 14.550781 14.550781 A 11.25 11.25 0 0 1 22.5 11.25 z "
     id="rect4511" />
  <path
     style="opacity:1;fill:none;fill-opacity:0.8584475;fill-rule:evenodd;stroke:#ffffff;stroke-width:1.5;stroke-miterlimit:4;stroke-dasharray:none;stroke-dashoffset:0;stroke-opacity:1"
     d="M 22.5 11.25 A 11.25 11.25 0 0 0 14.550781 14.550781 L 17.376953 17.376953 A 7.25 7.25 0 0 1 22.5 15.25 A 7.25 7.25 0 0 1 29.75 22.5 A 7.25 7.25 0 0 1 22.5 29.75 A 7.25 7.25 0 0 1 17.376953 27.623047 L 19.214844 25.785156 L 12.714844 25.785156 L 12.714844 32.285156 L 14.550781 30.449219 A 11.25 11.25 0 0 0 22.5 33.75 A 11.25 11.25 0 0 0 33.75 22.5 A 11.25 11.25 0 0 0 22.5 11.25 z "
     id="path4495" />
</svg>
