<?xml version="1.0" encoding="UTF-8" standalone="no"?>
<!-- Created with Inkscape (http://www.inkscape.org/) -->

<svg
   xmlns:dc="http://purl.org/dc/elements/1.1/"
   xmlns:cc="http://creativecommons.org/ns#"
   xmlns:rdf="http://www.w3.org/1999/02/22-rdf-syntax-ns#"
   xmlns:svg="http://www.w3.org/2000/svg"
   xmlns="http://www.w3.org/2000/svg"
   xmlns:sodipodi="http://sodipodi.sourceforge.net/DTD/sodipodi-0.dtd"
   xmlns:inkscape="http://www.inkscape.org/namespaces/inkscape"
   version="1.1"
   width="202.52017"
   height="150"
   id="svg5280"
   inkscape:version="0.48.5 r10040"
   sodipodi:docname="MistServer_logo.svg">
  <sodipodi:namedview
     pagecolor="#ffffff"
     bordercolor="#666666"
     borderopacity="1"
     objecttolerance="10"
     gridtolerance="10"
     guidetolerance="10"
     inkscape:pageopacity="0"
     inkscape:pageshadow="2"
     inkscape:window-width="1920"
     inkscape:window-height="1025"
     id="namedview24"
     showgrid="false"
     fit-margin-top="0"
     fit-margin-left="0"
     fit-margin-right="0"
     fit-margin-bottom="0"
     inkscape:zoom="1.4374431"
     inkscape:cx="422.85672"
     inkscape:cy="28.852269"
     inkscape:window-x="-2"
     inkscape:window-y="-3"
     inkscape:window-maximized="1"
     inkscape:current-layer="layer1"
     units="pt" />
  <defs
     id="defs5282" />
  <metadata
     id="metadata5285">
    <rdf:RDF>
      <cc:Work
         rdf:about="">
        <dc:format>image/svg+xml</dc:format>
        <dc:type
           rdf:resource="http://purl.org/dc/dcmitype/StillImage" />
        <dc:title />
      </cc:Work>
    </rdf:RDF>
  </metadata>
  <g
     transform="translate(-48.726234,-449.75204)"
     id="layer1">
    <path
       d="m 69.082153,534.25314 81.028637,43.26488 81.02605,-43.26488 -30.50707,-69.00894 -101.039068,0 -30.508549,69.00894 0,0 z m 81.028637,50.11732 -88.826486,-47.43088 34.369418,-77.74079 108.913568,0 34.36905,77.74079 -88.82555,47.43088 0,0"
       id="path46"
       style="fill:#8cb3cf;fill-opacity:1;fill-rule:nonzero;stroke:none"
       inkscape:connector-curvature="0" />
    <path
       d="m 234.87352,538.03959 -166.751519,0 0,-6.04541 166.751519,0 0,6.04541"
       id="path48"
       style="fill:#b5d3e2;fill-opacity:1;fill-rule:nonzero;stroke:none"
       inkscape:connector-curvature="0" />
    <path
       d="m 83.487009,535.52082 c 0,9.59968 -7.78108,17.38075 -17.379651,17.38075 -9.599122,0 -17.381124,-7.78106 -17.381124,-17.38075 0,-9.59784 7.782002,-17.38076 17.381124,-17.38076 9.598571,0 17.379651,7.78292 17.379651,17.38076"
       id="path50"
       style="fill:#8cb3cf;fill-opacity:1;fill-rule:nonzero;stroke:none"
       inkscape:connector-curvature="0" />
    <path
       d="m 251.2464,535.52082 c 0,9.59968 -7.78107,17.38075 -17.38074,17.38075 -9.59968,0 -17.37892,-7.78106 -17.37892,-17.38075 0,-9.59784 7.77924,-17.38076 17.37892,-17.38076 9.59967,0 17.38074,7.78292 17.38074,17.38076"
       id="path52"
       style="fill:#8cb3cf;fill-opacity:1;fill-rule:nonzero;stroke:none"
       inkscape:connector-curvature="0" />
    <path
       d="m 155.78768,537.1828 -5.05228,-3.32212 49.37108,-75.06356 5.05043,3.32211 -49.36923,75.06357 0,0"
       id="path54"
       style="fill:#b5d3e2;fill-opacity:1;fill-rule:nonzero;stroke:none"
       inkscape:connector-curvature="0" />
    <path
       d="m 148.786,537.78162 -52.896977,-74.05569 4.919417,-3.51558 52.89533,74.05754 -4.91777,3.51373 0,0"
       id="path56"
       style="fill:#b5d3e2;fill-opacity:1;fill-rule:nonzero;stroke:none"
       inkscape:connector-curvature="0" />
    <path
       d="m 214.59628,462.59829 c 0,7.0975 -5.75242,12.8481 -12.84624,12.8481 -7.09565,0 -12.84625,-5.7506 -12.84625,-12.8481 0,-7.09381 5.7506,-12.84625 12.84625,-12.84625 7.09382,0 12.84624,5.75244 12.84624,12.84625"
       id="path58"
       style="fill:#8cb3cf;fill-opacity:1;fill-rule:nonzero;stroke:none"
       inkscape:connector-curvature="0" />
    <path
       d="m 111.82484,462.59829 c 0,7.0975 -5.75133,12.8481 -12.845873,12.8481 -7.095285,0 -12.847532,-5.7506 -12.847532,-12.8481 0,-7.09381 5.752247,-12.84625 12.847532,-12.84625 7.094543,0 12.845873,5.75244 12.845873,12.84625"
       id="path60"
       style="fill:#8cb3cf;fill-opacity:1;fill-rule:nonzero;stroke:none"
       inkscape:connector-curvature="0" />
    <path
       d="m 168.87714,487.53535 c 0,9.39145 -7.61157,17.00487 -17.00119,17.00487 -9.38963,0 -17.00304,-7.61342 -17.00304,-17.00487 0,-9.38962 7.61341,-17.0012 17.00304,-17.0012 9.38962,0 17.00119,7.61158 17.00119,17.0012"
       id="path62"
       style="fill:#8cb3cf;fill-opacity:1;fill-rule:nonzero;stroke:none"
       inkscape:connector-curvature="0" />
    <path
       d="m 165.85536,536.40156 c 0,7.72396 -6.25913,13.98126 -13.97941,13.98126 -7.72029,0 -13.98126,-6.2573 -13.98126,-13.98126 0,-7.72029 6.26097,-13.97941 13.98126,-13.97941 7.72028,0 13.97941,6.25912 13.97941,13.97941"
       id="path64"
       style="fill:#b5d3e2;fill-opacity:1;fill-rule:nonzero;stroke:none"
       inkscape:connector-curvature="0" />
    <path
       d="m 68.335736,537.40574 -2.945866,-5.28074 83.87888,-47.98547 4.45712,6.79162 -85.390134,46.47459 0,0"
       id="path66"
       style="fill:#8cb3cf;fill-opacity:1;fill-rule:nonzero;stroke:none"
       inkscape:connector-curvature="0" />
    <path
       d="m 149.46958,490.65477 -52.141724,-25.31476 2.545669,-5.48159 53.653355,23.80204 -3.30185,6.23887 -0.75545,0.75544"
       id="path68"
       style="fill:#8cb3cf;fill-opacity:1;fill-rule:nonzero;stroke:none"
       inkscape:connector-curvature="0" />
    <path
       d="m 149.4143,484.06397 51.00726,-23.80203 2.6551,5.42999 -49.49635,25.31477"
       id="path70"
       style="fill:#8cb3cf;fill-opacity:1;fill-rule:nonzero;stroke:none"
       inkscape:connector-curvature="0" />
    <path
       d="m 233.09362,538.50758 -83.88016,-47.98547 4.56768,-6.72714 82.36743,49.49637 -3.05495,5.21624 0,0"
       id="path72"
       style="fill:#8cb3cf;fill-opacity:1;fill-rule:nonzero;stroke:none"
       inkscape:connector-curvature="0" />
    <path
       d="m 154.52001,580.48452 -6.80084,0 -2.26634,-93.70278 11.33536,0 -2.26818,93.70278 0,0"
       id="path74"
       style="fill:#8cb3cf;fill-opacity:1;fill-rule:nonzero;stroke:none"
       inkscape:connector-curvature="0" />
    <path
       d="m 168.12169,582.37313 c 0,9.59968 -7.78107,17.37891 -17.38075,17.37891 -9.59784,0 -17.37891,-7.77923 -17.37891,-17.37891 0,-9.59968 7.78107,-17.38076 17.37891,-17.38076 9.59968,0 17.38075,7.78108 17.38075,17.38076"
       id="path76"
       style="fill:#8cb3cf;fill-opacity:1;fill-rule:nonzero;stroke:none"
       inkscape:connector-curvature="0" />
  </g>
</svg>
