<svg width="25" height="25" version="1.1" viewBox="0 0 25 25" xmlns="http://www.w3.org/2000/svg"><g transform="matrix(.55556 0 0 .55556 0 -559.65)"><g transform="translate(3.0305 47.73)" fill="#fff"><path d="m4.4695 998.16a4.0012 4.0012 0 0 0 3.75 3.9687h2.2813a4.0012 4.0012 0 0 0 3.9688-3.75v-32.281a4.0012 4.0012 0 0 0-3.75-3.9688h-2.2813a4.0012 4.0012 0 0 0-3.9687 3.75z"/><path d="m24.47 998.16a4.0012 4.0012 0 0 0 3.75 3.9687h2.2812a4.0012 4.0012 0 0 0 3.9688-3.75v-32.281a4.0012 4.0012 0 0 0-3.75-3.9688h-2.2812a4.0012 4.0012 0 0 0-3.9688 3.75z"/></g></g></svg>
