<?xml version="1.0" encoding="UTF-8" standalone="no"?><svg xmlns:dc="http://purl.org/dc/elements/1.1/" xmlns:cc="http://creativecommons.org/ns#" xmlns:rdf="http://www.w3.org/1999/02/22-rdf-syntax-ns#" xmlns:svg="http://www.w3.org/2000/svg" xmlns="http://www.w3.org/2000/svg" version="1.1" id="svg2" height="45" width="45"><defs id="defs4" /><metadata id="metadata7"><rdf:RDF><cc:Work rdf:about=""><dc:format>image/svg+xml</dc:format><dc:type rdf:resource="http://purl.org/dc/dcmitype/StillImage" /><dc:title></dc:title></cc:Work></rdf:RDF></metadata><g transform="translate(0,-1007.3622)" id="layer1"><g style="fill:#fff" transform="translate(3.0304575,47.729705)" id="g3779"><path id="path3823-7" d="m 4.4695429,998.16377 a 4.0011916,4.0011916 0 0 0 3.749999,3.96873 l 2.2812501,0 a 4.0011916,4.0011916 0 0 0 3.96875,-3.75003 l 0,-32.28123 a 4.0011916,4.0011916 0 0 0 -3.75,-3.96875 l -2.2812501,0 a 4.0011916,4.0011916 0 0 0 -3.968749,3.75 l 0,32.28128 z" style="fill:#fff;fill-opacity:1;stroke:none" /><path id="path3823-7-4" d="m 24.469542,998.1638 a 4.0011916,4.0011916 0 0 0 3.75,3.9687 l 2.28125,0 a 4.0011916,4.0011916 0 0 0 3.96875,-3.75 l 0,-32.28126 a 4.0011916,4.0011916 0 0 0 -3.75,-3.96875 l -2.28125,0 a 4.0011916,4.0011916 0 0 0 -3.96875,3.75 l 0,32.28131 z" style="fill:#fff;fill-opacity:1;stroke:none" /></g></g></svg>
