<?xml version="1.0" encoding="UTF-8" standalone="no"?>
<!-- Created with Inkscape (http://www.inkscape.org/) -->

<svg
   xmlns:dc="http://purl.org/dc/elements/1.1/"
   xmlns:cc="http://creativecommons.org/ns#"
   xmlns:rdf="http://www.w3.org/1999/02/22-rdf-syntax-ns#"
   xmlns:svg="http://www.w3.org/2000/svg"
   xmlns="http://www.w3.org/2000/svg"
   xmlns:sodipodi="http://sodipodi.sourceforge.net/DTD/sodipodi-0.dtd"
   xmlns:inkscape="http://www.inkscape.org/namespaces/inkscape"
   width="45"
   height="45"
   id="svg2"
   version="1.1"
   inkscape:version="0.48.4 r9939"
   sodipodi:docname="1.svg">
  <defs
     id="defs4" />
  <sodipodi:namedview
     id="base"
     pagecolor="#000000"
     bordercolor="#666666"
     borderopacity="1.0"
     inkscape:pageopacity="0"
     inkscape:pageshadow="2"
     inkscape:zoom="5.3283681"
     inkscape:cx="36.324499"
     inkscape:cy="19.316553"
     inkscape:document-units="px"
     inkscape:current-layer="layer1"
     showgrid="false"
     inkscape:snap-global="true"
     showguides="true"
     inkscape:snap-bbox="true"
     inkscape:bbox-paths="false"
     inkscape:object-paths="true"
     inkscape:snap-intersection-paths="true"
     inkscape:snap-page="true"
     inkscape:object-nodes="true"
     inkscape:snap-nodes="false"
     inkscape:window-width="981"
     inkscape:window-height="709"
     inkscape:window-x="856"
     inkscape:window-y="240"
     inkscape:window-maximized="0">
    <sodipodi:guide
       position="0,0"
       orientation="0,45"
       id="guide3785" />
    <sodipodi:guide
       position="45,0"
       orientation="-45,0"
       id="guide3787" />
    <sodipodi:guide
       position="45,45"
       orientation="0,-45"
       id="guide3789" />
    <sodipodi:guide
       position="0,45"
       orientation="45,0"
       id="guide3791" />
  </sodipodi:namedview>
  <metadata
     id="metadata7">
    <rdf:RDF>
      <cc:Work
         rdf:about="">
        <dc:format>image/svg+xml</dc:format>
        <dc:type
           rdf:resource="http://purl.org/dc/dcmitype/StillImage" />
        <dc:title></dc:title>
      </cc:Work>
    </rdf:RDF>
  </metadata>
  <g
     inkscape:label="Layer 1"
     inkscape:groupmode="layer"
     id="layer1"
     transform="translate(0,-1007.3622)">
    <g
       id="g3779"
       transform="translate(3.0304575,47.729705)"
       style="fill:#ffffff">
      <path
         style="fill:#ffffff;fill-opacity:1;stroke:none"
         d="m 4.4695429,998.16377 a 4.0011916,4.0011916 0 0 0 3.749999,3.96873 l 2.2812501,0 a 4.0011916,4.0011916 0 0 0 3.96875,-3.75003 l 0,-32.28123 a 4.0011916,4.0011916 0 0 0 -3.75,-3.96875 l -2.2812501,0 a 4.0011916,4.0011916 0 0 0 -3.968749,3.75 l 0,32.28128 z"
         id="path3823-7"
         inkscape:connector-curvature="0" />
      <path
         style="fill:#ffffff;fill-opacity:1;stroke:none"
         d="m 24.469542,998.1638 a 4.0011916,4.0011916 0 0 0 3.75,3.9687 l 2.28125,0 a 4.0011916,4.0011916 0 0 0 3.96875,-3.75 l 0,-32.28126 a 4.0011916,4.0011916 0 0 0 -3.75,-3.96875 l -2.28125,0 a 4.0011916,4.0011916 0 0 0 -3.96875,3.75 l 0,32.28131 z"
         id="path3823-7-4"
         inkscape:connector-curvature="0" />
    </g>
  </g>
</svg>
