<?xml version="1.0" encoding="UTF-8" standalone="no"?><svg xmlns:dc="http://purl.org/dc/elements/1.1/" xmlns:cc="http://creativecommons.org/ns#" xmlns:rdf="http://www.w3.org/1999/02/22-rdf-syntax-ns#" xmlns:svg="http://www.w3.org/2000/svg" xmlns="http://www.w3.org/2000/svg" width="64" height="64" viewBox="0 0 64.000002 64.000002" id="svg4429" version="1.1"> <defs  id="defs4431" /> <metadata  id="metadata4434"> <rdf:RDF>  <cc:Work   rdf:about="">  <dc:format>image/svg+xml</dc:format>  <dc:type   rdf:resource="http://purl.org/dc/dcmitype/StillImage" />  <dc:title></dc:title>  </cc:Work> </rdf:RDF> </metadata> <g  id="layer1"  transform="translate(-617.80121,-674.1592)"> <g  transform="translate(-85.69681,111.42941)"  id="g3383">  <g   transform="matrix(1.3405403,0,0,1.3405403,-250.53223,-201.71523)"   id="g4143">  <path   style="fill:#8cb3d1;fill-opacity:1;fill-rule:nonzero;stroke:none"   d="m 12.708984,13.941406 c -2.50489,0 -4.5312496,1.874993 -4.5312496,4.189453 l 0,26.523438 c 0,2.30958 2.0263596,4.189453 4.5312496,4.189453 l 38.679688,0 c 2.50489,0 4.53125,-1.879873 4.53125,-4.189453 l 0,-26.523438 c 0,-2.31446 -2.02636,-4.189453 -4.53125,-4.189453 l -38.679688,0 z m -1.203125,7.064453 41.314453,0 0,18.19336 -41.314453,0 0,-18.19336 z m 0,20.386719 41.314453,0 0,5.009766 -41.314453,0 0,-5.009766 z"   transform="translate(703.49802,562.72979)"   id="path5535" />  <path   id="path5541"   d="m 730.84958,587.51544 9.95606,5.31739 -9.95606,5.31737 z m 0,0"   style="fill:#8cb3d1;fill-opacity:1;fill-rule:nonzero;stroke:none" />  <path   id="path5543"   d="m 718.88669,606.93439 33.56934,0 0,-0.61524 -33.56934,0 z m 0,0"   style="fill:#8cb3d1;fill-opacity:1;fill-rule:nonzero;stroke:none" />  <path   id="path5545"   d="m 727.99801,606.62676 c 0,0.88868 -0.78125,1.61622 -1.74803,1.61622 -0.9668,0 -1.74805,-0.72754 -1.74805,-1.61622 0,-0.89355 0.78125,-1.61619 1.74805,-1.61619 0.96678,0 1.74803,0.72264 1.74803,1.61619"   style="fill:#8cb3d1;fill-opacity:1;fill-rule:nonzero;stroke:none" />  </g> </g> </g></svg>
