<?xml version="1.0" encoding="UTF-8" standalone="no"?>
<svg
   xmlns:dc="http://purl.org/dc/elements/1.1/"
   xmlns:cc="http://creativecommons.org/ns#"
   xmlns:rdf="http://www.w3.org/1999/02/22-rdf-syntax-ns#"
   xmlns:svg="http://www.w3.org/2000/svg"
   xmlns="http://www.w3.org/2000/svg"
   xmlns:sodipodi="http://sodipodi.sourceforge.net/DTD/sodipodi-0.dtd"
   xmlns:inkscape="http://www.inkscape.org/namespaces/inkscape"
   version="1.1"
   id="svg4429"
   viewBox="0 0 64.000008 64.000006"
   height="64"
   width="64"
   inkscape:version="0.91 r13725"
   sodipodi:docname="preview.svg">
  <sodipodi:namedview
     pagecolor="#ffffff"
     bordercolor="#666666"
     borderopacity="1"
     objecttolerance="10"
     gridtolerance="10"
     guidetolerance="10"
     inkscape:pageopacity="0"
     inkscape:pageshadow="2"
     inkscape:window-width="958"
     inkscape:window-height="1040"
     id="namedview17"
     showgrid="false"
     units="px"
     inkscape:zoom="2.2585352"
     inkscape:cx="59.600694"
     inkscape:cy="49.739631"
     inkscape:window-x="960"
     inkscape:window-y="19"
     inkscape:window-maximized="0"
     inkscape:current-layer="layer1" />
  <defs
     id="defs4431" />
  <metadata
     id="metadata4434">
    <rdf:RDF>
      <cc:Work
         rdf:about="">
        <dc:format>image/svg+xml</dc:format>
        <dc:type
           rdf:resource="http://purl.org/dc/dcmitype/StillImage" />
        <dc:title></dc:title>
      </cc:Work>
    </rdf:RDF>
  </metadata>
  <g
     transform="translate(-582.95054,-557.8903)"
     id="layer1">
    <path
       inkscape:connector-curvature="0"
       style="fill:#8cb3d1;fill-opacity:1;fill-rule:nonzero;stroke:none"
       d="m 592.82603,621.89028 c -0.4815,0.009 -1.04972,-0.29907 -1.57906,-0.65496 -1.25609,-0.84635 -2.49422,-1.71963 -3.73235,-2.5929 -1.51327,-1.06767 -1.77047,-2.46131 -0.68785,-3.89683 2.4972,-3.31665 5.0273,-6.60936 7.51254,-9.93199 0.74168,-0.9929 1.49533,-1.93495 2.67065,-2.50019 0.48151,-0.23029 0.81347,-0.19141 1.22917,0.16747 1.73159,1.51029 3.59178,2.86505 5.68524,3.89384 0.53234,0.26318 0.68487,0.62206 0.60412,1.14244 -0.1286,0.79552 -0.39178,1.54617 -0.89122,2.20113 -2.73944,3.62169 -5.48187,7.23739 -8.23328,10.85011 -0.58318,0.76861 -1.31291,1.32188 -2.57796,1.32188"
       id="path4265" />
    <path
       inkscape:connector-curvature="0"
       style="fill:#f3f3f3;fill-opacity:1;fill-rule:nonzero;stroke:none"
       d="m 597.85932,608.22595 c 0.006,0.46953 -0.15253,0.75365 -0.3529,1.01981 -1.46244,1.93197 -2.90394,3.87291 -4.39328,5.78693 -0.81646,1.04374 -1.42356,1.01982 -2.80823,0.0119 -1.00187,-0.72972 -1.10057,-1.33683 -0.36188,-2.31478 1.41758,-1.8871 2.83515,-3.77421 4.26768,-5.65234 0.40374,-0.52935 0.96898,-0.96599 1.65084,-0.61309 0.8344,0.43066 1.85122,0.76561 1.99777,1.7615"
       id="path4267" />
    <path
       inkscape:connector-curvature="0"
       style="fill:#f3f3f3;fill-opacity:1;fill-rule:nonzero;stroke:none"
       d="m 591.35164,617.09027 c -0.0359,1.01084 -1.19926,1.67477 -2.18617,1.15738 -0.42767,-0.22729 -0.84039,-0.50244 -1.20225,-0.81346 -0.66991,-0.57719 -0.7058,-1.19626 -0.17047,-1.87216 0.48748,-0.61906 1.23813,-0.76261 1.95589,-0.32 0.71178,0.43964 1.55814,0.79253 1.603,1.84824"
       id="path4269" />
    <path
       inkscape:connector-curvature="0"
       style="fill:#8cb3d1;fill-opacity:1;fill-rule:nonzero;stroke:none"
       d="m 617.27468,608.4353 c -14.58843,0 -26.46137,-11.33761 -26.46137,-25.27409 0,-13.93349 11.87294,-25.27108 26.46137,-25.27108 14.59144,0 26.46137,11.33759 26.46137,25.27108 0,13.93648 -11.86993,25.27409 -26.46137,25.27409 m 0,-46.83376 c -12.44712,0 -22.5735,9.6718 -22.5735,21.55967 0,11.89088 10.12638,21.56267 22.5735,21.56267 12.44714,0 22.5765,-9.67179 22.5765,-21.56267 0,-11.88787 -10.12936,-21.55967 -22.5765,-21.55967"
       id="path4271" />
    <path
       sodipodi:type="inkscape:offset"
       inkscape:radius="0"
       inkscape:original="M 10.3125 -6.34375 A 2.9416186 2.9416186 0 0 0 7.90625 -4.875 L -6.21875 19.625 A 2.9416186 2.9416186 0 0 0 -3.65625 24.03125 L 24.625 24.03125 A 2.9416186 2.9416186 0 0 0 27.15625 19.625 L 13 -4.875 A 2.9416186 2.9416186 0 0 0 10.3125 -6.34375 z "
       style="fill:#5490ba;fill-opacity:1;fill-rule:evenodd;stroke:none"
       id="path3809"
       d="M 10.3125,-6.34375 A 2.9416186,2.9416186 0 0 0 7.90625,-4.875 l -14.125,24.5 a 2.9416186,2.9416186 0 0 0 2.5625,4.40625 l 28.28125,0 A 2.9416186,2.9416186 0 0 0 27.15625,19.625 L 13,-4.875 a 2.9416186,2.9416186 0 0 0 -2.6875,-1.46875 z"
       transform="matrix(0.76064273,-0.43915731,0.43915731,0.76064273,604.05764,577.92667)" />
  </g>
</svg>
