<?xml version="1.0" encoding="UTF-8" standalone="no"?><svg xmlns:dc="http://purl.org/dc/elements/1.1/" xmlns:cc="http://creativecommons.org/ns#" xmlns:rdf="http://www.w3.org/1999/02/22-rdf-syntax-ns#" xmlns:svg="http://www.w3.org/2000/svg" xmlns="http://www.w3.org/2000/svg" width="64" height="64" id="svg3937" version="1.1"> <defs id="defs3939" /> <metadata id="metadata3942"> <rdf:RDF> <cc:Work rdf:about=""> <dc:format>image/svg+xml</dc:format> <dc:type rdf:resource="http://purl.org/dc/dcmitype/StillImage" /> <dc:title></dc:title> </cc:Work> </rdf:RDF> </metadata> <path id="path4495" d="m 30.437499,8 a 24,24 0 0 0 -16.958333,7.041667 l 6.029167,6.029167 A 15.466666,15.466666 0 0 1 30.437499,16.533334 15.466666,15.466666 0 0 1 45.904165,32 15.466666,15.466666 0 0 1 30.437499,47.466666 15.466666,15.466666 0 0 1 19.508333,42.929166 l 3.920833,-3.920833 -13.866665,0 0,13.866665 3.916665,-3.916665 A 24,24 0 0 0 30.437499,56 a 24,24 0 0 0 24,-24 24,24 0 0 0 -24,-24 z" style="opacity:1;fill:#8db3d1;fill-opacity:1;fill-rule:evenodd;stroke:none;stroke-width:1.5;stroke-miterlimit:4;stroke-dasharray:none;stroke-dashoffset:0;stroke-opacity:1" /></svg>
