<?xml version="1.0" encoding="UTF-8" standalone="no"?>
<svg
   xmlns:dc="http://purl.org/dc/elements/1.1/"
   xmlns:cc="http://creativecommons.org/ns#"
   xmlns:rdf="http://www.w3.org/1999/02/22-rdf-syntax-ns#"
   xmlns:svg="http://www.w3.org/2000/svg"
   xmlns="http://www.w3.org/2000/svg"
   xmlns:sodipodi="http://sodipodi.sourceforge.net/DTD/sodipodi-0.dtd"
   xmlns:inkscape="http://www.inkscape.org/namespaces/inkscape"
   version="1.1"
   id="svg4659"
   height="45"
   width="45"
   sodipodi:docname="speaker_.svg"
   inkscape:version="0.92.2 5c3e80d, 2017-08-06">
  <sodipodi:namedview
     pagecolor="#4cc5a0"
     bordercolor="#666666"
     borderopacity="1"
     objecttolerance="10"
     gridtolerance="10"
     guidetolerance="10"
     inkscape:pageopacity="0"
     inkscape:pageshadow="2"
     inkscape:window-width="1868"
     inkscape:window-height="1049"
     id="namedview8"
     showgrid="false"
     fit-margin-top="0"
     fit-margin-left="0"
     fit-margin-right="0"
     fit-margin-bottom="0"
     inkscape:zoom="6.675088"
     inkscape:cx="-34.245466"
     inkscape:cy="20.740429"
     inkscape:window-x="0"
     inkscape:window-y="0"
     inkscape:window-maximized="0"
     inkscape:current-layer="svg4659" />
  <defs
     id="defs4661" />
  <metadata
     id="metadata4664">
    <rdf:RDF>
      <cc:Work
         rdf:about="">
        <dc:format>image/svg+xml</dc:format>
        <dc:type
           rdf:resource="http://purl.org/dc/dcmitype/StillImage" />
        <dc:title />
      </cc:Work>
    </rdf:RDF>
  </metadata>
  <path
     inkscape:connector-curvature="0"
     style="fill:none;fill-opacity:1;stroke:#ffffff;stroke-width:3.81837654;stroke-miterlimit:4;stroke-dasharray:none;stroke-opacity:1"
     d="m 32.737813,5.2037363 c -1.832447,-1.10124 -4.200687,-0.8622 -5.771871,0.77112 0,0 -7.738819,8.0443797 -7.738819,8.0443797 0,0 -3.417976,0 -3.417976,0 -1.953668,0 -3.54696,1.65618 -3.54696,3.68694 0,0 0,9.58644 0,9.58644 0,2.03094 1.593292,3.68712 3.54696,3.68712 0,0 3.417976,0 3.417976,0 0,0 7.738819,8.04474 7.738819,8.04474 1.572104,1.63404 3.938942,1.8747 5.771871,0.77076 0,0 0,-34.5914997 0,-34.5914997 z"
     id="rect4574-3" />
</svg>
