<?xml version="1.0" encoding="UTF-8" standalone="no"?><svg xmlns:dc="http://purl.org/dc/elements/1.1/" xmlns:cc="http://creativecommons.org/ns#" xmlns:rdf="http://www.w3.org/1999/02/22-rdf-syntax-ns#" xmlns:svg="http://www.w3.org/2000/svg" xmlns="http://www.w3.org/2000/svg" version="1.1" id="svg4659" height="25" width="25"><defs id="defs4661" /><metadata id="metadata4664"><rdf:RDF><cc:Work rdf:about=""><dc:format>image/svg+xml</dc:format><dc:type rdf:resource="http://purl.org/dc/dcmitype/StillImage" /><dc:title></dc:title></cc:Work></rdf:RDF></metadata><g transform="translate(0,-1027.3622)" id="layer1"><path id="rect4159" transform="translate(0,1027.3622)" d="M 0 0 L 0 25 L 25 25 L 25 0 L 0 0 z M 17.789062 0.74609375 C 18.295139 0.76779043 18.796936 0.91543438 19.25 1.1855469 L 19.25 23.8125 C 18.041512 24.5346 16.481832 24.377494 15.445312 23.308594 L 10.341797 18.046875 L 8.0878906 18.046875 C 6.7997976 18.046875 5.75 16.963266 5.75 15.634766 L 5.75 9.3632812 C 5.75 8.0348812 6.7997976 6.9511719 8.0878906 6.9511719 L 10.341797 6.9511719 L 15.445312 1.6894531 C 16.092759 1.0217031 16.945602 0.70993262 17.789062 0.74609375 z " style="opacity:1;fill:#000000;fill-opacity:1;fill-rule:evenodd;stroke:none;stroke-width:1.5;stroke-miterlimit:4;stroke-dasharray:none;stroke-dashoffset:0;stroke-opacity:1" /><path id="rect4574" d="m 19.25,1028.5473 c -1.20817,-0.7203 -2.769599,-0.564 -3.805513,0.5044 l -5.102362,5.2622 -2.2535418,0 c -1.288093,0 -2.3385832,1.0834 -2.3385832,2.4118 l 0,6.2709 c 0,1.3285 1.0504902,2.4119 2.3385832,2.4119 l 2.2535418,0 5.102362,5.2623 c 1.03652,1.0689 2.597025,1.2263 3.805513,0.5042 l 0,-22.6277 z" style="fill:none;fill-opacity:1;stroke:#ffffff;stroke-width:1.5;stroke-miterlimit:4;stroke-dasharray:none;stroke-opacity:1" /></g></svg>
