<svg width="45" height="45" version="1.1" viewBox="0 0 45 45" xmlns="http://www.w3.org/2000/svg">
  <path d="m8.4925 18.786c-3.9578 1.504-6.4432 3.632-6.4434 5.9982 2.183e-4 4.1354 7.5562 7.5509 17.399 8.1467v4.7777l10.718-6.2573-10.718-6.2529v4.5717c-6.9764-0.4712-12.229-2.5226-12.227-4.9859 6.693e-4 -0.72127 0.45868-1.4051 1.2714-2.0267zm28.015 0v3.9715c0.81164 0.62126 1.2685 1.3059 1.2692 2.0267-0.0014 1.4217-1.791 2.75-4.8021 3.6968-2.0515 0.82484-0.93693 3.7696 1.2249 2.9659 5.3088-1.8593 8.7426-3.8616 8.7514-6.6627-1.26e-4 -2.3662-2.4856-4.4942-6.4434-5.9982z"/>
  <rect x="10.166" y="7.7911" width="24.668" height="15.432" fill="none" stroke="#000" stroke-linecap="round"/>
</svg>
