<?xml version="1.0" encoding="UTF-8"?>
<svg width="45" height="45" version="1.1" xml:space="preserve" xmlns="http://www.w3.org/2000/svg">
  <path class="stroke semiFill toggle" d="m19.815 5.9747-7.7388 8.0444h-3.418c-1.9537 0-3.547 1.6562-3.547 3.6869v9.5864c0 2.0309 1.5933 3.6871 3.547 3.6871h3.418l7.7388 8.0447c1.5721 1.634 3.9389 1.8747 5.7719.77076v-34.591c-1.8324-1.1014-4.2007-.86258-5.7719.77074z"/>
  <g class="stroke" stroke-linecap="round">
    <path d="m29.578 28.432c1.7601-1.2785 2.8014-3.3226 2.8008-5.498.000642-2.1754-1.0407-4.2196-2.8008-5.498"/>
    <path d="m32.197 31.051c2.4404-1.9883 3.8564-4.9693 3.8555-8.1172-.000179-3.1475-1.4168-6.1278-3.8574-8.1152"/>
  </g>
</svg>
