<?xml version="1.0" encoding="UTF-8"?>
<svg width="64" height="64" version="1.1" viewBox="0 0 64 64" xml:space="preserve" xmlns="http://www.w3.org/2000/svg">
  <g style="stroke-linejoin:round;stroke-linecap:round;stroke-width:2;stroke:#000;fill:none;">
    <path d="m11.366 18.465h19.537l7.5553 7.5534 3e-4 28.265c1.6e-5 1.5178-1.2219 2.7396-2.7396 2.7396h-24.352c-1.5178 0-2.7396-1.2219-2.7396-2.7396v-33.079c0-1.5178 1.2219-2.7396 2.7396-2.7396z" style="fill:#bbb"/>
    <path d="m40.458 26.019h-6.2017c-.74975 0-1.3536-.60382-1.3536-1.3535v-6.1999" />
    <path d="m17.946 48.061h11.193m-11.193-3.1581h11.193m-11.193-3.1581h11.193m-11.193-3.1581h11.193m-11.193-3.1581h11.193" style="stroke-width:1px"/>
    <path d="m28.281 6.9771h19.537l7.5553 7.5534 3e-4 28.265c1.6e-5 1.5178-1.2219 2.7396-2.7396 2.7396h-24.352c-1.5178 0-2.7396-1.2219-2.7396-2.7396v-33.079c0-1.5178 1.2219-2.7396 2.7396-2.7396z" style="fill:white"/>
    <path d="m55.373 14.53h-6.2017c-.74975 0-1.3536-.60382-1.3536-1.3535v-6.1999"/>
    <path d="m34.861 36.572h11.193m-11.193-3.1581h11.193m-11.193-3.1581h11.193m-11.193-3.1581h11.193m-11.193-3.1581h11.193" style="stroke-width:1px"/>
  </g>
</svg>
