<?xml version="1.0" encoding="UTF-8"?>
<svg width="64" height="64" version="1.1" xml:space="preserve" xmlns="http://www.w3.org/2000/svg"><path d="m48.596 11.91c-.96782-.96782-2.5261-.96782-3.494 0l-13.102 13.102-13.102-13.102c-.96782-.96782-2.5261-.96782-3.494 0l-3.494 3.494c-.96782.96782-.96782 2.5261 0 3.494l13.102 13.102-13.102 13.102c-.96782.96782-.96782 2.5261 0 3.494l3.494 3.494c.96782.96782 2.5261.96782 3.494 0l13.102-13.102 13.102 13.102c.96782.96782 2.5261.96782 3.494 0l3.494-3.494c.96782-.96782.96782-2.5261 0-3.494l-13.102-13.102 13.102-13.102c.96782-.96782.96782-2.5261 0-3.494z" style="fill:#fff;stroke-width:2;stroke:#000"/></svg>
