<?xml version="1.0" encoding="UTF-8"?>
<svg width="64" height="64" version="1.1" viewBox="0 0 64 64" xml:space="preserve" xmlns="http://www.w3.org/2000/svg">
<g style="fill:white;stroke-width:2;stroke:black;stroke-linejoin:round">
<path d="m26.76 5.6635c-7.5343 0-13.601 6.0188-13.601 13.497v11.019h-1.3072c-1.5978 0-2.884 1.2767-2.884 2.8627v23.508c0 1.586 1.2862 2.8627 2.884 2.8627h31.152c1.5978 0 2.884-1.2767 2.884-2.8627v-23.508c0-1.586-1.2862-2.8627-2.884-2.8627h-1.3072v-11.019c0-7.4787-6.067-13.497-13.601-13.497h-1.3342zm.66709 5.5315c4.9411 0 8.9181 3.9476 8.9181 8.8523v10.133h-17.836v-10.133c0-4.9046 3.977-8.8523 8.9181-8.8523zm0 24.955a5.3965 5.3567 0 015.3973 5.3575 5.3965 5.3567 0 01-1.1084 3.1737l.78501 9.18h-10.148l.78501-9.18a5.3965 5.3567 0 01-1.1084-3.1737 5.3965 5.3567 0 015.3973-5.3575z"/>
<path d="m46.396 3.3457a12.774 12.774 0 00-12.773 12.773 12.774 12.774 0 007.9375 11.795l.13086 27.883 3.9941 4.2812 4.0762-4.2812v-2.582l.93359-1.0742-.93359-1.0059v-2.0195l1.1309-1.2285-2.3105-2.8203 1.9492-2.0469-.76953-.77734v-1.6406l1.1387-1.6445-1.1387-1.6309v-2.8945h.58203v-2.5293h.88867v-3.9883a12.774 12.774 0 007.9375-11.795 12.774 12.774 0 00-12.773-12.773zm0 4.6367a2.7302 2.7302 0 012.7305 2.7305 2.7302 2.7302 0 01-2.7305 2.7305 2.7302 2.7302 0 01-2.7305-2.7305 2.7302 2.7302 0 012.7305-2.7305z" style="fill:#bbb"/></g>
</svg>
