<?xml version="1.0" encoding="UTF-8"?>
<svg width="64" height="64" version="1.1" xml:space="preserve" xmlns="http://www.w3.org/2000/svg"><path d="m29.529 6.0588c-1.3687 0-2.4706 1.1019-2.4706 2.4706v18.529h-18.529c-1.3687 0-2.4706 1.1019-2.4706 2.4706v4.9412c0 1.3687 1.1019 2.4706 2.4706 2.4706h18.529v18.529c0 1.3687 1.1019 2.4706 2.4706 2.4706h4.9412c1.3687 0 2.4706-1.1019 2.4706-2.4706v-18.529h18.529c1.3687 0 2.4706-1.1019 2.4706-2.4706v-4.9412c0-1.3687-1.1019-2.4706-2.4706-2.4706h-18.529v-18.529c0-1.3687-1.1019-2.4706-2.4706-2.4706z" style="fill:white;stroke-width:2;stroke:black"/></svg>
