<svg width="64" height="64" version="1.1" viewBox="0 0 64 64" xmlns="http://www.w3.org/2000/svg">
  <g style="fill:white;stroke-linejoin:round;stroke-linecap:round;stroke-width:2;stroke:#000">
    <path d="m4.4688 12.736s-2.0621 7.6884 2.2158 12.786c4.2779 5.0979 11.307 4.6211 11.307 4.6211s27.012 25.587 29.406 27.869 8.5275 2.1674 11.066-.90518c2.5384-3.0726 2.2306-7.4614-.46845-10.211s-27.997-27.545-27.997-27.545.6011-8.1225-4.8868-12.408c-5.4879-4.2856-13.415-1.7504-13.415-1.7504s8.7811 7.3913 8.762 9.4592c-.01913 2.0679-3.916 6.2966-6.3076 6.4202s-9.681-8.3364-9.681-8.3364z"/>
    <path d="m22.633 38.006s-6.736 7.5891-8.0449 8.4199c-1.3089.83085-3.5855-.2392-4.4648.80469-.87936 1.0439-6.5742 9.1207-6.5742 10.383l2.4688 2.377c1.2622 0 9.3389-5.6949 10.383-6.5742s-.02812-3.1559.80273-4.4648c.64227-1.0118 2.3172-1.885 8.4219-8.0449z"/>
    <path d="m40.861 26.306 14.533-14.533m-17.375 11.694 14.533-14.533m-2.3952-3.6008-15.215 15.059 8.6584 8.6493 15.449-14.514c2.7285-2.5225 2.4789-6.8937.16099-8.9833-2.318-2.0896-6.1056-2.7806-9.0534-.21097z" />
  </g>
</svg>
