<?xml version="1.0" encoding="UTF-8"?>
<svg width="64" height="64" version="1.1" viewBox="0 0 64 64" xml:space="preserve" xmlns="http://www.w3.org/2000/svg" xmlns:xlink="http://www.w3.org/1999/xlink">
  <g style="fill:#ccc;stroke-linecap:round;stroke-linejoin:round;stroke-width:2;stroke:#000">
    <path d="m26.816 7.4258v.87305h-1.0586v1.4805h-.99805v42.021h1.498v1.2207h11.484v-1.2207h1.498v-42.021h-.99805v-1.4805h-1.0586v-.87305h-10.367z"/>
    <path d="m28.678 60.63v-7.6083h6.6448v7.6083"/>
    <path id="status_a" d="m39.24 37.375h8.6066c0 3.302-.4732 4.3899-3.0278 5.5674s-3.5266 3.5141-4.0095 5.1494.05917 2.6733-1.5693 2.6733z"/>
    <use id="status_b" transform="translate(0 -26.03)" href="#status_a"/>
    <use id="status_c" transform="translate(0,-13.015)" href="#status_a"/>
    <use transform="matrix(-1 0 0 1 63.892 0)" href="#status_a"/>
    <use transform="matrix(-1,0,0,1,63.892,0)" href="#status_c"/>
    <use transform="matrix(-1 0 0 1 63.892 0)" href="#status_b"/>

    <g style="fill:#fff;stroke-width:1.5">
      <path d="m29.228 12.969c-.21726.14276-.3485.3885-.34836.65228l.0045 7.4528c.000662.27716.1462.53288.38175.67071.23554.13782.52525.13678.75984-.0027l6.3225-3.7265c.23296-.13945.37584-.39472.37526-.67042-.000662-.2757-.14455-.53033-.3781-.66875l-6.327-3.7262c-.24616-.14525-.55117-.13795-.79038.01891"/>
      <path d="m28.631 33.591a.91153.69906 0 00.8543.69339h.51971a.91153.69906 0 00.90415-.65518v-5.6399a.91153.69906 0 00-.8543-.6934h-.51971a.91153.69906 0 00-.90412.65518z"/>
      <path d="m33.188 33.591a.91153.69906 0 00.8543.69339h.51969a.91153.69906 0 00.90415-.65518v-5.6399a.91153.69906 0 00-.8543-.6934h-.51969a.91153.69906 0 00-.90415.65518z"/>
      <rect x="28.5" y="40.855" width="7" height="7"/>
    </g>
  </g>
</svg>
