<?xml version="1.0" encoding="UTF-8"?>
<svg width="64" height="64" version="1.1" viewBox="0 0 64 64" xml:space="preserve" xmlns="http://www.w3.org/2000/svg">
<g style="fill:white;stroke:black;stroke-linecap:round;stroke-linejoin:round;stroke-width:2">
  <g style="fill:#ccc">
    <path d="m49.048 31.43v26.408m5.2896-27.696v26.408m-10.578-24.538v26.408m-5.2887-26.989v26.408m-5.2896-27.696v26.408m-5.4489-30.806 1.8639 32.24c7.9492 3.5666 16.762 5.162 28.417.26498l1.8882-32.533"/>
    <path d="m26.848 20.321c6.9249-4.2013 26.857-4.1985 33.933-.08361l-.05486 5.2184c-8.8219 3.7535-23.528 3.6007-33.87-.21528z"/>
    <path d="m49.879 19.369v-3.1054c0-1.3861-1.1135-2.5015-2.4972-2.5015h-6.9726c-1.3837 0-2.4972 1.1154-2.4972 2.5015v3.1054"/>
  </g>
  <path d="m9.1211 52.173s.24197-2.7198-.4295-4.0441-3.3433-.90611-4.5852-5.8833c-1.344-5.3864-1.0379-10.133.077388-14.362.029814-.11304.38236-11.985.58198-13.814.18308-1.677 3.1677-2.044 3.8724-.86684.70686 1.1808 1.0203 12.727 1.0203 12.727s-.52298-15.858.58628-18.932c.837-2.3193 3.894-1.7635 4.379-.45193 1.0189 2.756 1.0969 19.171 1.3308 19.146 2e-6 0-.25962-14.296.4262-21.027.24329-2.3875 5.1104-2.988 5.2319.34134.54246 14.881.64281 20.513.64281 20.513s-.16845-11.778.68995-17.036c.43883-2.6877 3.6556-3.6118 4.7131.10875.84907 2.9872.74483 23.205.74483 23.205 3.5446-.2825 5.4864-3.6157 8.438-4.411 2.9517-.79524 6.7025-.79055 6.9176 2.2484.21516 3.039-5.5962 1.8637-8.0532 8.0452-2.4571 6.1816-6.9016 9.3972-8.7087 10.343-1.8071.94654-1.2092 4.477-1.2092 4.477-2.8272.46935-13.973.61435-16.667-.32841z" />
  <path d="m8.7915 26.166c.61089-.33686 1.2039-.27557 1.7894-.04718m4.4587-.11756c.66025-.49722 1.3034-.33637 1.7546-.04626m4.6309-.12209c.52331-.45847 1.1822-.35684 1.8907-.04985m-15.414 21.532c1.1072.63923 2.4557 1.1733 3.9256 1.5878m11.378.64695c1.8772-.38222 3.0078-1.0818 4.2765-1.7978m-10.26-2.1069c-.26149-7.5558 3.2348-11.412 8.543-13.486" style="fill:none;stroke-width:1.5"/>
</g>
</svg>
