<?xml version="1.0" encoding="UTF-8"?>
<svg width="64" height="64" version="1.1" viewBox="0 0 64 64" xml:space="preserve" xmlns="http://www.w3.org/2000/svg">
<g style="fill:white;stroke-linecap:round;stroke-linejoin:round;stroke-width:2;stroke:#000">
<path d="m16.564 58.246s.27018-3.0341-.47957-4.5114-3.7331-1.0108-5.1198-6.5631c-1.5007-6.0087-1.1589-11.304.08641-16.021.03329-.1261.42694-13.37.64983-15.41.20442-1.8708 3.537-2.2802 4.3239-.96699.78927 1.3172 1.1392 14.198 1.1392 14.198s-.58395-17.69.65463-21.119c.93458-2.5873 4.348-1.9673 4.8895-.50415 1.1377 3.0744 1.2248 21.386 1.486 21.358 2e-6 0-.28989-15.948.47589-23.456.27165-2.6633 5.7062-3.3332 5.8418.38078.6057 16.6.71775 22.883.71775 22.883s-.18809-13.139.77038-19.004c.48999-2.9982 4.0818-4.0291 5.2626.12132.94806 3.3323.83166 25.886.83166 25.886 3.9578-.31514 6.126-4.0335 9.4217-4.9206 3.2958-.88712 7.4839-.88189 7.7241 2.5082.24024 3.3901-6.2486 2.079-8.9921 8.9748s-7.7062 10.483-9.724 11.538c-2.0178 1.0559-1.3502 4.9943-1.3502 4.9943-3.1568.52358-15.602.68533-18.61-.36635z"/>
<path d="m16.196 29.234c.68211-.37578 1.3442-.30741 1.998-.05263m4.9785-.13114c.73722-.55467 1.4554-.37523 1.9592-.0516m5.1708-.1362c.58432-.51144 1.32-.39807 2.1111-.05561m-17.211 24.02c1.2363.71309 2.742 1.3089 4.3832 1.7712m12.704.7217c2.096-.42638 3.3585-1.2068 4.7751-2.0055m-11.456-2.3503c-.29197-8.4288 3.6119-12.731 9.5389-15.044" style="fill:none;stroke-width:1.5"/>
</g>
</svg>
