<?xml version="1.0" encoding="UTF-8"?>
<svg width="64" height="64" version="1.1" viewBox="0 0 64 64" xml:space="preserve" xmlns="http://www.w3.org/2000/svg">
<g style="stroke:black;stroke-linejoin:round;stroke-linecap:round;stroke-width:2;fill:#ccc">
<path transform="rotate(-60)" d="m-34.124 40.569-7.8914.000349a.99995.99995 135 00-.99991 1v.000322a1 1 44.996 001.0001.99996l7.8914-.000349a.99995.99995 135 00.99991-1l-1e-6-.000322a1 1 44.996 00-1.0001-.99996zm13.562 22.757-.000278-.00016a.99995.99995 165 00-1.366.36592l-3.946 6.834a1 1 75.004 00.36594 1.3661l.000278.000161a.99995.99995 165 001.366-.36592l3.946-6.834a1 1 75.004 00-.36594-1.3661z" style="stroke-width:1"/>
<path transform="rotate(-60 .89002 .51385)" d="m4.5492 30.86-1.7321 1 3 5.1962 1.7321-1z"/>
<path d="m15.705 10.561c-5.2467-7.6e-5-9.5001 4.2533-9.5 9.5.00506 2.6775 1.1398 5.2286 3.125 7.0254 6.0022-3.9158 10.325-8.5512 12.883-13.943-1.7614-1.6578-4.0889-2.5813-6.5078-2.582zm32.59 0c-2.4189.00077-4.7464.92422-6.5078 2.582 2.5574 5.3922 6.8806 10.028 12.883 13.943 1.9852-1.7968 3.1199-4.3478 3.125-7.0254 7.6e-5-5.2467-4.2533-9.5001-9.5-9.5z"/>
<circle cx="32" cy="37.134" r="19.5" style="fill:#fff;stroke-width:3"/>
<path d="m32 38.486-5.0348 8.4852m5.0348-8.4852v-15.493" style="fill:#fff"/>
<circle cx="32" cy="37.486" r="1.885" style="stroke:none;fill:black"/>
</g>
</svg>
