<?xml version="1.0" encoding="UTF-8"?>
<svg width="200" height="420.23" version="1.1" viewBox="0 0 200 420.23392" xml:space="preserve" xmlns="http://www.w3.org/2000/svg"><g stroke-width=".99997"><path transform="matrix(1 0 0 1 -.00093021 0)" d="m200 348.51c-0.40665 0.57469-0.92 1.0864-1.7441 1.5352-2.3492 1.2786-2.332 4.0263-3.1973 6.2129-1.6492 4.1639-3.3565 4.6177-6.8457 1.8418-3.7546-2.9866-6.2283-2.4702-8.127 1.9297-1.14 2.6439-3.1101 4.7712-4.1406 7.5098-0.72264 1.9159-4.4972 2.1664-6.4531 0.75586-1.0307-0.74398-1.9103-1.8704-3.4062-1.0371-1.2187 0.44132-2.8913 0.62277-3.082 2.1348-0.13732 1.0947-0.32758 1.8786-1.4062 1.748-2.4799-0.37866-4.0113-3.9905-7.1445-2.084-0.40397 0.0867-0.79212 0.22031-1.1602 0.4043-1.8212 1.3187-2.8595 1.1934-2.8262-1.3945 0.088-6.7998-2.9691-12.71-5.957-18.445-1.872-3.5933-6.3164-4.7427-9.7617-6.668-2.0239-1.1307-6.3442 2.8076-6.8789 5.8301-0.1 0.56932-0.11422 1.148-0.04883 1.7226 0.32 2.8066 1.8383 6.2974-1.0176 8.0547-3.5519 2.1852-7.4487 4.5757-12.1 3.373-3.3106-0.85732-5.8496-0.29213-6.7363 3.1211 0.79597-2.1279 0.24046-4.1866-2.3008-4.8398-2.2746-0.58533-3.1839 1.4078-3.8984 3.2051-0.32 0.80397-0.52058 1.6446-0.75391 2.4766-0.40798 1.452 0.6071 3.8984-1.1875 4.2051-2.2372 0.38265-4.5588-1.0526-5.9414-2.8672-3.8079-4.9971-8.1841-9.1732-13.855-12.055-2.9199-1.4839-4.2232-4.6289-5.8711-7.3301-2.1346-3.4999-5.6211-3.4033-7.5957 0.25391-0.67998 1.2613-1.3057 2.6-1.5977 4.0039-0.52665 2.5239 0.77604 6.029-4.0918 5.793-1.3227-0.064-1.4097 2.2745-1.2617 3.7305 0.29199 2.8586-0.7263 5.2323-2.5742 7.4375 0.61731-4.2626-2.8634-7.4431-2.6621-11.646 0.094699-1.9906-2.5572-2.5026-4.2012-3.252-2.2466-1.024-4.0384-2.1752-3.957-5.0098 0.057299-2.0386-0.54376-3.7444-2.9316-4.0684-2.2719-0.30666-4.3378 0.01977-5.7363 2.0957-1.1693 1.7346-1.7436 3.657-1.4062 5.7383 0.32399 1.9932 0.60948 3.9482 0.38281 5.9961-0.23999 2.1692 0.94194 3.3198 2.8926 3.3691-2.6586 1.4693-4.983 0.51515-7.6016-1.2168-5.1398-3.3972-10.708-5.0603-16.672-1.7324-1.5692 0.87597-2.9589 0.45378-3.5723-1.1328-1.8786-4.8571-6.5145-7.5266-9.1211-11.822-0.59579-0.98195-1.4866-1.3556-2.4512-1.582v75.439h200v-71.734z" fill="#343234"/><path transform="matrix(1 0 0 1 -.00093021 0)" d="m200 134.57c-4.5452 1.916-9.9672 2.2144-12.836 7.1426-0.60397 1.0373-1.643 1.4199-2.4844 1.3359-2.5399-0.252-3.9897 1.114-5.3203 2.918-1.0707 1.4507-2.3754 2.6734-4.3594 1.9961-1.9492-0.66397-2.3579-2.4429-2.3926-4.2148-0.044-2.2319-0.91758-4.041-2.3535-5.6543-0.81598-0.91731-1.8635-1.3248-3.0527-1.1621-8.5237 1.16-16.473 4.0763-24.502 7.1309-10.951 4.1639-21.666 8.8679-32.537 13.205-9.3117 3.7159-18.423 7.968-27.771 11.57-7.1545 2.7559-13.955 6.3171-21.371 8.5703-4.2412 1.2892-8.4222 3.5924-12.498 5.6816-4.0519 2.0786-8.4904 2.9481-12.625 4.8867-11.4 5.3425-23.394 9.3326-34.898 14.492-0.33152 0.1487-0.66646 0.289-0.99805 0.4375v74.562c1.2734-0.23012 2.5461-0.44283 3.8652-0.65429 4.0719-0.65332 6.6525-4.3666 7.0352-8.5332 0.11067-1.2-0.3138-3.0436 1.5234-2.9609 1.3933 0.064 1.0992 1.734 1.1992 2.8594 0.30932 3.4612 3.455 6.7263 6.7441 7.0996 1.268 0.144 2.624-0.15823 2.832-1.3516 0.52131-3.0039 1.7559-2.8514 4.3398-2.082 4.2012 1.2506 9.3087-2.4613 10.049-6.7852 0.26133-1.5266 0.64979-2.8299 2.3164-3.2539 0.9533-0.24265 1.768 0.1344 2.1094 1.041 0.59465 1.584-0.25481 2.7831-1.3027 3.8418-1.1133 1.1253-2.1423 2.4051-3.5195 3.1758-2.3639 1.3213-4.2056 2.6275-2.2949 5.6914 0.64131 1.028-0.35576 1.788-1.0117 2.584-2.7506 3.3372-2.6907 4.3311 0.31055 7.6562 1.9586 2.1692 3.5983 4.5389 4.0996 7.4668 0.60665 3.5466-0.80318 4.9407-4.207 3.9688-2.9519-0.84264-4.385 0.10696-5.6504 2.8535-2.0119 4.3666-3.6803 9.0031-7.2441 12.492-2.2359 2.1892-1.3482 3.7557 0.95703 5.0742 5.4825 1.6439 7.7683-2.887 10.16-5.9922 2.1479-2.7906 3.6095-4.6954 7.5547-3.6621 3.0519 0.80131 5.545-1.9245 6.541-6.1523 0.40533-1.8626 0.47448-3.9181 1.5371-5.498 1.2853-1.9146 1.2147-3.6221 0.30274-5.5566-0.89597-1.8999-0.77878-3.8281-0.32812-5.8906 0.7173-3.2972 1.3866-4.9183 5.373-2.7598 4.2906 2.3226 5.6365 1.3371 7.6777-3.416 0.33999-0.79064 0.4601-1.8129 1.4414-1.9609 1.2693-0.19199 1.6343 0.96075 2.0996 1.8301 0.40932 0.76398 0.72036 1.6011 0.79102 2.457 0.33466 3.9918 0.45983 7.9933 3.9023 10.934 0.85063 0.72663 0.70534 2.1625 0.63867 3.3144-0.15067 2.6559 0.64616 4.7056 3.1074 6.1016 1.5812 0.89731 2.5173 3.4766 4.4238 3.0859 2.5759-0.52665 5.4217-1.5239 7.3496-3.0879 2.0732-1.6826 3.0612-4.7585 4.0078-7.457 2.4292-6.9265 2.3827-7.0134 9.8984-7.416 2.3986-0.12799 2.9565-2.0182 4.0352-3.4394 0.75998-1.0013 1.0948-2.3499 2.4668-2.9219 0.47598 1.3746-0.6865 2.1252-1.0078 3.1465-0.95597 3.0386 0.85947 5.1635 3.9688 4.6875 4.5091-0.69197 8.3176 0.98064 9.3789 5.2578 0.98397 3.9572 2.6049 6.1371 6.7715 6.2051 0.99064 0.0173 1.8386 0.77455 2.5879 1.4785 1.2253 1.1013 2.6265 1.5456 4.2598 1.1816 3.0799-0.68799 4.6468 0.35868 4.2988 3.3105-0.95196 8.0704 1.3912 16.088 0.25391 24.152-0.132 0.93597-0.1461 2.3971 0.92187 2.6504l7.4668 7.1699c1.2347 1.8812 7.9556 1.7347 10.648 0.27344 1.9012-1.596 4.4787-1.4745 6.6094-2.5332 0.55198-0.62396 1.0114-1.3441 1.6621-1.9121 0.27866-0.58133 1.0901-0.69056 1.1914-1.4238 0.5253-4.3092 1.2435-5.0387 5.0859-4.6387 2.1879 0.22799 4.1196 0.2892 5.4062-1.9707 1.0773-1.8946 2.9787-2.8287 5.0293-2.9434 2.6399-0.14799 4.5573-1.5464 6.5332-2.9609 0.34799-0.11467 0.69085-0.24237 1.0469-0.31836 6.3092 0.51463 8.2238-1.7792 7.2266-8.5977-0.43598-0.37866 0.66287-0.09303 0.10157 0.04297-0.26934 0.064-0.24167 0.1985 0.07031 0.42383 1.7512 1.2647 3.5457 1.7522 5.3574 1.9922v-180.27z" fill="#505052"/><path transform="matrix(1 0 0 1 -.00093021 0)" d="m200 334.65c-1.2112 1.2354-2.8042 2.2391-4.6758 2.416-2.1452 0.20266-4.3172 0.02158-6.4785 0.01758-0.41731-0.0253-0.80853 0.0609-1.1738 0.26758-1.3453 2.0332-2.4924 4.7794-5.2656 1.3555-0.35999-0.44532-0.98217-0.8095-1.5234-0.66016-3.8386 1.052-6.693-1.3539-9.9394-2.5898-7.3798-2.8106-6.7729-1.6944-11.811 4.4121-2.9746 3.6066-5.4348 7.8009-3.5469 12.979 0.38397 1.0507 0.12122 2.1628-1.1348 2.3535-1.4426 0.21867-2.9268 0.0907-3.2188-1.8652-0.11067-0.37998-0.26089-0.74429-0.43554-1.0976-0.34532-0.47332-0.77566-0.873-1.1543-1.3184-0.228-0.31199-0.43524-0.63587-0.61524-0.97852-0.46264-1.5746-1.492-2.7173-2.7812-3.668-0.29865-0.26798-0.62468-0.49407-0.97265-0.6914-0.51466-0.33466-0.99504-0.71333-1.4844-1.084-0.35865-0.22933-0.73667-0.41354-1.1406-0.54687-2.2372-0.87197-4.6052-1.3668-4.9785-4.5547-0.18933-1.6266-1.6655-2.5188-3.6055-1.7988-1.1973 0.44399-2.4901 0.6444-3.7754 0.76172-1.9292 0.19734-3.2797 1.685-5.0703 2.2637-2.3426 0.75731-4.4069 1.0184-6.3828-0.9082-2.2599-2.2026-4.3059-1.7481-6.0898 0.78516-1.6679 2.3692-4.9865 3.515-5.0332 7.1309-0.0133 1.0453-1.0605 1.1297-2.0059 0.67773-2.6959-1.2906-4.6859-0.28321-6.3379 1.9434-0.85463 1.1507-1.9203 1.4606-2.959 0.2207-0.9533-1.14-1.5185-2.8142-0.083984-3.5449 2.1461-1.0934 2.7539-2.7099 3.0176-4.3691 0.0258 0.70816 0.19554 1.3989 0.70898 1.9629 1.0067 1.108 2.3269 1.006 3.6016 0.55664 3.8212-1.348 6.1325-5.7781 4.9766-9.6445-0.33332-1.112-0.54694-2.1685-0.48828-3.3418 0.13466-2.7092-1.4961-4.1889-3.832-5.1074-6.3543-2.4987-10.865-1.4253-13.844 1.5195 1.6628-2.0761 2.3508-4.82 0.88086-7.5234-1.5986-2.9386-3.586-5.3669-8.0898-4.2109 1.0813-2.8852 1.4341-5.4688-0.45117-7.582-1.7932-2.0092-4.2269-2.9964-6.8828-3.1777-3.3572-0.23065-5.773-1.2613-6.1504-5.1426-0.188-1.9293-1.3308-3.9114-3.3867-3.9941-5.1651-0.20799-7.5953-4.1493-10.736-7.1758-0.308-0.29731-0.51061-0.70161-0.83594-0.98828-1.06-0.93696-2.2089-2.0483-3.5312-2.1582v-0.00195c-0.44082-0.0367-0.90017 0.03822-1.3828 0.26757-2.1732 1.032-1.42 3.1426-1.2227 5.1426 0.37065 3.7559-1.5094 7.0243-3.1934 10.225-0.30666 0.58265-0.87025 1.0457-0.90625 1.791-2.0892 4.0666-4.8358 7.6628-8.5156 10.346-3.1679 2.3079-5.424 5.0615-6.3105 8.8359-0.0387-0.0707-0.30722 0.15177-0.33789 0.09179-3.3386-1.312-4.7976 0.35611-5.7441 3.3066-0.7213 2.2492-0.81524 4.7-2.1445 6.752-0.35066 2.8052-4.5099 1.8658-4.7793 4.1641-0.65464 0.19867-0.70643 1.1937-0.98242 1.8164-0.57998 3.5372-4.0673 6.1148-6.4473 5.4668-3.0292-0.82571-6.6195-1.1268-9.3164-3.332v5.457c0.94299 0.50141 1.7132 1.253 2.1426 2.502 0.58131 1.6879 1.6812 2.8981 3.0879 4.0273 2.5559 2.0492 4.1488 4.6769 4.0781 8.1621-0.039999 1.9572 0.83554 2.4776 2.7715 2.0977 1.7546-0.34399 3.1541-1.2741 4.5234-2.3848 2.3186-1.8799 2.5848-1.9219 4.8262-0.16602 1.3293 1.0413 2.3344 1.4796 3.6797 0.07422 0.7853-0.82131 1.8736-0.55314 2.8203-0.0625 1.6812 0.87198 3.2144 1.9531 4.2891 3.541 1.6786 2.4772 3.7184 2.1204 5.5996 0.92187 0.36399-0.23065 0.73087-0.47106 1.0469-0.76172 1.4493-1.3279 2.8779-1.7843 4.5645-0.2871 0.59998 0.53197 1.4145-0.04714 1.4238-0.8711 0.022699-2.0519-0.68904-2.9293-2.6543-3.1973-0.70798-0.096-1.4414-0.03241-2.1348-0.17774-0.61731-0.12933-0.94016-0.64372-0.9375-1.2891 1e-3 -0.28133 0.023008-0.59862 0.15234-0.83594 0.85063-1.5626 0.62028-2.9692-0.31836-4.4531-0.91997-1.4573-0.70569-3.0421 0.099609-4.5274 0.42265-0.77997 1.0488-1.347 1.9102-1.6562 1.204-0.43198 2.4928 0.22869 2.6035 1.4434 0.078699 0.85463-0.019447 1.7226 0.001953 2.584 0.049299 1.9559 1.0271 3.246 2.875 3.8633 1.2267 0.40932 2.4954 0.71325 3.6914 1.1973 1.2947 0.52264 1.906 1.4256 1.3633 2.7148-0.64531 1.5332-0.37578 2.8238 0.9375 3.8438 1.6866 1.3107 2.0147 3.0282 1.6641 5.0215-0.28265 1.6066-0.022472 3.1758 0.71484 4.6211 0.31599 0.62131 0.78443 1.2153 1.3164 1.666 1.052 0.89063 2.7825 0.40338 3.2012-0.89258 0.26265-0.81331 0.38153-1.6793 0.49219-2.5312 0.18799-1.4519 0.55227-2.856 1.4336-4.0293 1.22-1.6266 1.5879-3.3164 0.89453-5.2656-0.24533-0.69065-0.16308-1.519 0.71289-1.7617 0.82397-0.22933 1.2917 0.39722 1.6797 1.0332 0.49998 0.81729 0.4559 2.0862 1.7266 2.2715 0.7773 0.112 1.5462-1.3747 1.7715-3.1641 0.18666-1.4867-0.25933-2.8481-0.69531-4.2227-0.87597-2.7626 0.18467-5.0863 1.7246-7.2637 0.65465-0.92662 1.9289-0.96872 2.6035-0.10742 0.70665 0.90396 1.3106 1.8884 1.9492 2.8457 1.2773 1.9172 2.5146 3.8586 4.252 5.4238 1.3707 1.236 2.4465 2.7895 4.7305 2.4922 1.1-0.14267 1.7054 0.95647 1.8574 2.0352 0.099999 0.70531 0.018041 1.433 0.056641 2.1504 0.12533 2.3266 0.40545 2.4908 2.916 1.7441 1.7786-0.52798 2.7148-0.07046 3.4375 1.5215 0.67331 1.4866 0.36598 3.077 0.33398 4.5195 0.55998 0.156 0.87589 0.36248 1.0879 0.28516 2.4946-0.90398 4.5113-0.15324 6.2285 1.7188 0.097299 0.10532 0.20122 0.20488 0.31055 0.29687 0.86264 0.71731 1.5821 1.9959 2.8555 1.6172 1.4786-0.44132 1.4906-2.0119 1.6426-3.2559 0.13866-1.1253 0.01452-2.2935-0.07618-3.4375-0.12665-1.6146 0.04063-3.1651 0.7793-4.6211 0.27065-0.53463 0.68574-1.0246 1.3457-0.7539 0.61599 0.25334 0.67788 0.9072 0.56055 1.4766-0.17466 0.84129-0.4804 1.6561-0.67773 2.4961-0.13067 0.55597-0.22372 1.1318-0.23438 1.7012-0.012 0.58931 0.20332 1.1539 0.7793 1.4219 0.59998 0.27999 1.1562 0.04209 1.5176-0.44726 0.50797-0.69199 0.93883-1.4424 1.3828-2.1797 0.44533-0.73997 0.81327-1.533 1.3106-2.2344 0.9293-1.3132 1.7288-1.58 3.3555-1.0801 3.2852 1.008 6.4595 1.1211 9.3848-1.0215 1.224-0.89597 2.6942-0.93294 4.0781-1.293 2.8266-0.73597 3.555-1.5914 3.7695-4.4726 0.16135-2.1652-0.04162-4.3138-0.37891-6.4551-0.21066-1.328 0.00603-2.5687 0.80078-3.6992 1.5373-2.1852 3.1312-2.7141 5.5645-1.6074 1.436 0.65197 2.7937 1.4884 4.1562 2.291 2.7079 1.5972 4.1222 4.1061 4.1875 7.1367 0.052 2.4239 0.70661 4.4914 2.0039 6.4688 1.2292 1.8692 1.7251 3.9104 1.3106 6.1758-0.31599 1.7292-0.19068 3.4456 0.75195 5.0176 0.89064 1.484 2.4683 1.6043 3.5137 0.17774 0.58901-0.80441 1.0037-1.7349 1.125-3.082 0.12176 0.15874 0.2306 0.32838 0.37891 0.4668-0.29999-0.27999-0.563-0.58783-0.375-0.47851 1.7986 0.55865 3.0857 1.0128 4.2402 1.8555 1.1653 0.85065 2.5073 1.1448 3.918 1.2168 1.248-0.57199 1.785-1.5447 1.7637-2.9141-0.02928-2.0146 1.2666-1.7389 2.5625-1.4082 0.13333 0.0547 0.26111 0.12148 0.39844 0.16015 1.4226 0.39865 2.1335 2.1872 3.6309 2.1699 1.7012-0.0187 3.4011-0.48331 5.0957-0.77929 0.87065-0.152 1.8031-0.45088 2.1816-1.2441 1.3-2.7226 3.9435-4.6203 4.6582-7.6895 0.096-0.41198 0.31465-0.80511 0.5293-1.1758 0.73198-1.2733 2.0186-1.7082 3.3105-1.0215 0.75065 0.39865 1.4138 0.97087 2.0938 1.4922 1.9866 1.524 3.4409 1.6642 5.4902 0.49219 1.1653-0.66664 2.0102-1.6273 2.5195-2.8633 0.32799-0.79731 0.60211-1.6171 0.88476-2.4316 0.59613-1.7092 1.4618-3.0548 3.0664-3.5684v-17.559zm-99.633 2.6016c0.078 0.74062-0.37034 2.081-0.77735 3.3965 0.084499-1.2692 0.17854-2.488 0.77735-3.3965z" fill="#3a393a"/><path transform="matrix(1 0 0 1 -.00093021 0)" d="m200 325.08c-0.01024 0.0019-0.02101 0.00203-0.03125 0.00391-2.7052 0.49731-3.3035 2.6278-1.5488 4.7305 0.37937 0.45465 1.0113 0.83399 1.5801 1.2324v-5.9668z" fill="#3a393a"/></g><path transform="matrix(1 0 0 1 -.00093021 0)" d="m200 315.92c-6.8922 0.69316-3.6472 14.216-12.16 17.875-0.29531 6.5478 7.1713 7.2362 12.16 5.5293v-23.404z" fill="#3d3c3e" stroke-width="1.3333"/><path transform="matrix(1 0 0 1 -.00093021 0)" d="m200 121.33c-0.02726-0.02541-0.02799-0.05919-0.05859-0.08398-1.7092-0.41332-3.4193-0.64369-5.1406-0.81836-5.9291-0.23332-10.678 3.2577-15.961 5.0684-2.7919 0.95597-1.7859 3.8934-2.8926 5.7188-0.10534 0.26799-0.19431 0.55828-0.29297 0.82227-0.0147-0.0293-0.19237 0.34183-0.20703 0.3125-0.0147-0.0293-0.2412 0.26885-0.25586 0.24218-0.016-0.0267-0.29855 0.18673-0.31055 0.16407-0.0133-0.0213-0.33504 0.11951-0.3457 0.10351-0.25467 0.0347-0.50254 0.0755-0.75586 0.10352-0.27333 0.012-0.536 0.02836-0.80664 0.03906-0.28134 1e-3 -0.55852 0.01032-0.83985 0.01562-0.29465-0.0253-0.58434-0.04855-0.875-0.09375-0.47731-0.11866-0.91471-0.33178-1.3613-0.53711-0.56397-0.20797-1.141-0.2255-1.7344-0.21484-5.4078 3.0666-11.855 2.6801-17.412 5.5547-7.2904 3.7706-15.077 6.5777-22.742 9.4883-7.549 2.8666-14.988 6.0047-22.461 9.0273-10.445 4.2266-20.713 8.9415-31.205 13.02-13.049 5.0731-26.122 10.125-39.15 15.238-11.285 4.4306-22.85 8.2051-33.842 13.391-0.44424 0.20954-0.90441 0.38068-1.3496 0.58789v6.3672c2.3221-1.0884 4.6466-2.1723 6.9785-3.2383 0.78397-0.35865 1.5607-0.78492 2.3887-0.99024 4.0852-1.008 7.9277-2.5687 11.578-4.6699 1.3613-0.78397 2.891-1.296 4.3789-1.8359 5.1411-1.8652 10.078-4.1957 15.006-6.5449 0.51998-0.24666 1.038-0.51774 1.5859-0.67773 6.2451-1.8146 12.089-4.566 17.896-7.4473 2.4359-1.208 5.1098-1.9331 7.6777-2.873 1.0813-0.39732 2.245-0.6446 3.2383-1.1992 4.9251-2.7506 10.358-4.2837 15.486-6.541 1.7106-0.7533 3.4457-1.4661 5.2109-2.0781 3.1452-1.092 5.928-2.9952 8.9746-4.1777 2.9252-1.136 5.8935-2.1567 8.8281-3.3301 6.6771-2.6706 13.049-6.0983 19.984-8.1289 1.0987-0.32132 2.3288-0.58693 3.1875-1.2695 2.2212-1.7626 4.77-2.5881 7.4473-3.248 1.2492-0.30933 2.4694-0.80861 3.6348-1.3633 5.2398-2.4972 10.891-3.7311 16.43-5.2656 2.3226-0.64263 4.8446-0.61895 7.2832-0.76562 1.46-0.088 2.3971 0.7413 2.7305 2.252 0.47465 2.1466 0.31702 4.2658-0.26562 6.4004-0.41599 1.5293 0.04321 2.1658 1.5059 2.5352 1.396 0.35198 2.7956 0.69812 4.2129 0.93945 2.5506 0.43599 3.7-0.11894 5.0293-2.2988 0.22532-0.36798 0.41367-0.75972 0.59766-1.1504 0.78664-1.6612 1.9182-2.8389 3.8809-3.0176 1.3826-0.12666 2.3164-1.0362 3.2324-1.9922 0.8933-0.9333 1.8395-1.8261 2.8262-2.6621 1.3492-1.1453 2.9045-1.9468 4.707-1.9121 1.6568 0.03154 3.0655-0.43479 4.3477-1.4258v-15.539z" fill="#545456" stroke-width=".99997"/><g stroke-width="1.3333"><path transform="matrix(1 0 0 1 -.00093021 0)" d="m42.717 257.59c-10.151-1.9218-7.0604 18.082-16.285 9.8613-5.1774-9.4591-4.3996 13.362-10.32 1.8125 5.1929-8.9845-12.686-11.243-7.5664-0.02149-1.4582 3.9367-4.8861 4.9826-8.5449 5.666v51.049c2.1416 0.32121 4.3077 1.5631 6.5566 4.5059 7.3325 8.8952 11.275-6.6724 17.783-9.8809-3.7591-6.1992 5.2833-19.466 10.199-20.338 15.678 2.4248-2.5528-17.182 1.9805-20.152 5.7683-3.0944-1.8729-9.7061 7.0156-12.562 3.5619-2.5192 1.1093-7.2725-0.81836-9.9394z" fill="#545456"/><path transform="matrix(1 0 0 1 -.00093021 0)" d="m62.115 272.03c-3.3231 6.4338-7.2123 11.533-12.195 2.8789-7.0022 6.9136-4.8227 24.265-3.3125 28.027 5.4569-4.955 1.8499-20.193 10.451-8.4473 2.7699 7.3095 13.588 2.3642 10.906 13.258 9.2037-1.3095 17.843 4.1856 10.691 12.137 7.7325-4.4116 15.944 4.8769 7.0586 11.617-3.6733 8.5126 3.8867 10.869 4.4922 1.1152 6.9806-15.038 25.789 7.1466 11.314 9.543 1.0835-7.6993-5.0289-14.422-2.9277-2.9746-4.2124 6.2324-7.9987 9.4679-1.5 16.629 4.5181-2.5414 6.0764-7.5155 10.658-2.9043 2.9311-5.6731 6.8569-16.023 12.777-8.2656 19.478 0.15401 15.03-27.779 12.582-40.361-3.9121-8.1231-12.875-6.3751-15.293-15.75-4.1457-6.9934-15.049 0.71837-9.3965-9.2188-6.7066-12.97-6.6005 11.427-16.316 2.7578-4.5804 6.5234-9.3383 25.878-18.967 16.053-1.0719-9.0565-5.6891-15.644-8.8594-25.199l-2.1621-0.89257-0.001954-0.00196z" fill="#3f3e40"/><path transform="matrix(1 0 0 1 -.00093021 0)" d="m200 311.71c-4.4701-1.4987-8.5887-3.346-10.666-0.42383 8.2209 7.7839-5.2518 7.3037-11.205 10.611-5.9745 1.7618-9.3355 6.0997-14.969 8.4102-2.474 5.9682 13.412 5.1048 18.445 8.8848 9.7984 4.3236 9.9432-12.573 18.395-14.213v-2.1543c-1.9539-3.0798-1.6149-3.8695 0-3.6855v-7.4297z" fill="#474749"/></g><path transform="matrix(1 0 0 1 -.00093021 0)" d="m45.062 301.21c-0.76131 0.49866-1.1043 1.2314-1.4043 2.0859-0.86797 2.4826-1.7323 2.8993-4.1562 2.1699-0.68798-0.20665-1.3375-0.53177-2.0215-0.75977-1.4707-0.4893-2.8067-0.40344-3.9707 0.8125-0.58931 0.61599-1.3676 1.0454-2.0195 1.6094-0.31332 0.27199-0.76324 0.66295-0.75391 0.98828 0.10534 3.6839-3.0779 4.9556-5.1484 6.9941-0.78797 0.77463-1.9861 1.1298-2.998 1.6777l-0.003906-0.00391c-0.26799 0.30933-0.58729 0.56587-0.86328 0.86719l0.007813-0.00196c-0.86797 1.156 0.85144 2.3103-0.001953 3.4648-1e-3 0.28667-0.003813 0.57272-0.007813 0.85937-1.3627 2.6186-2.4214 5.5206-6.2227 5.4434-0.75997-0.016-1.521 0.89847-1.293 1.7305 0.73198 2.6692-1.5313 2.4844-2.8633 3.2031v-0.00196c-1.0235-0.41239-0.94793-0.46816-2.5918-0.30078-2.8071-3.8383-5.707-2.8324-8.75-0.60351v8.2207c1.4434 1.2334 2.9716 2.3758 4.4941 3.4941 1.244 0.91464 2.704 0.38445 3.584-1.1875 0.17599-0.31598 0.47558-0.1029 0.40625 0.01172-1.024 1.6666-0.49732 3.9174 1.2227 3.3027 2.2306-0.79731 6.3286 0.59341 6.502-3.9277 0.82647-0.44334 1.3316-0.85396 2.0488-1.2246 3e-3 -0.57465 0.004813-1.1481 0.007813-1.7227 0.28799-3.8532 4.3784-2.4008 6.0449-4.3301 0.058699-1.2879 0.078102-2.5788 0.19141-3.8613 0.075999-0.85198 0.2198-1.7119 0.45312-2.5332 0.44132-1.5492 1.2738-2.3846 2.207-2.2832 1.2467 0.13466 1.5077 1.1704 1.8477 2.1211 0.095999 0.26933 0.19638 0.5458 0.3457 0.78711 0.73997 1.1973 2.419 1.2044 3.2402 0.03516 0.63998-0.91062 0.46984-1.9154 0.36719-2.9141-1.2093-2.9412-0.15495-5.3091 2.0156-7.2598 1.6906-1.5186 3.4998-2.9186 5.3438-4.252 1.5612-1.1293 2.6722-2.474 3.2148-4.3594 0.54931-1.9066 1.5297-3.6922 1.5391-5.7441-0.003997-0.86866-0.007979-1.7387-0.013672-2.6074z" fill="#444445" stroke-width=".99997"/><g stroke-width="1.3333"><path transform="matrix(1 0 0 1 -.00093021 0)" d="m128.97 298.61c6.8552 9.6225 0.83941 24.714 3.4531 38.916 9.8543-4.0661 10.961 17.013 22.303 5.8691 5.1588-9.1701-13.386-0.93273-14.49-11.227-6.6416-8.9946 3.0206-25.833-7.1855-33.537-1.5838-0.0311-2.8056 2.765-4.0801-0.02148z" fill="#48484a"/><path transform="matrix(1 0 0 1 -.00093021 0)" d="m156.57 335.78c-10.403 8.0054 15.537 0.64971 0 0z" fill="#48484a"/><path transform="matrix(1 0 0 1 -.00093021 0)" d="m0.011719 324.55c-0.0039053 0.00128-0.0078129 0.00459-0.011719 0.00586v6.6524c1.2693-2.016 2.6725-4.1422 0.011719-6.6582z" fill="#424243"/><path transform="matrix(1 0 0 1 -.00093021 0)" d="m0 336.93v7.4141c6.7806 2.995 14.313 4.3549 18.262-4.2188-3.8353 1.2123-9.3357 7.2222-7.2559-2.4707-2.9988 0.35253-7.3011 5.078-11.006-0.72461z" fill="#424243"/><path transform="matrix(1 0 0 1 -.00093021 0)" d="m167.94 330.51c-8.0308 3.1959-11.36 11.932-17.959 15.992 6.2295 4.5506-6.4976 9.1971 4.252 10.801 11.404 5.1952-3.7591-14.364 6.9844-17.709 7.353-7.5389 19.482 4.1581 25.623 3.6387 5.2164-8.6236-13.493-3.4808-16.217-12.354l-2.6836-0.36719v-0.00195z" fill="#3d3c3e"/><path transform="matrix(1 0 0 1 -.00093021 0)" d="m155.3 338.11c-1.0088 8.1156-20.536 4.5214-7.4297 13.846 8.3729 4.9458 2.5805-9.1858 10.324-11.354 1.8234-1.6325-2.2059-2.8151-2.8945-2.4922z" fill="#3f3e40"/><path transform="matrix(1 0 0 1 -.00093021 0)" d="m137.67 335.71c-7.9363 0.62606-6.4424 5.4739-0.32813 6.1172 13.434 9.6333 7.3913-1.9958 0.32813-6.1172z" fill="#3d3c3e"/></g><path transform="matrix(1 0 0 1 -.00093021 0)" d="m200 88.377c-1.045 0.50789-2.0185 1.1844-2.8633 2.1973-0.68397 0.81863-1.9063 1.2724-2.9648 1.6777-5.3545 2.0506-10.628 4.3925-16.441 4.8965-1.352 0.11732-2.4673 0.692-3.418 1.6387-2.3666 2.3599-5.3357 3.3812-8.5703 3.5039-4.5812 0.17466-8.2469 2.0893-11.412 5.2852-1.612 1.628-3.4219 3.0562-5.0898 4.6309-1.0373 0.98129-1.9771 2.0648-2.9609 3.1035-1.5306 2.3292-0.66101 3.7033 1.8789 3.4688 4.6251-0.42532 8.5599 2.4507 13.102 2.3613 1.5119-0.02928 3.1476 0.85251 3.9941 2.1484 1.7986 2.7532 4.4984 3.7346 7.4355 4.4453 1.772 0.40663 1.9715 1.4344 1.8262 3.1758-0.13332 1.5812 0.28845 3.9664 2.7363 1.3945 0.31866-0.95063 0.69671-1.8843 0.94336-2.8535 0.33867-1.3253 0.96605-2.0172 2.4434-1.5625 0.71999 0.22134 1.4493 0.03596 1.9746-0.52929 1.0013-1.0787 2.5039-1.4453 3.5332-2.3652 2.0946-1.8732 4.3015-1.9784 6.6895-0.98242 1.1173 0.46531 1.5521-0.20745 2.0801-0.88477 1.6693-0.72351 3.3532-1.4062 5.084-1.9551v-32.795z" fill="#c0c1c4" stroke-width=".99997"/><path transform="matrix(1 0 0 1 -.00093021 0)" d="m166.22 130.44c-3.7256-0.68135-6.6102 1.807-9.7949 2.8867-12.677 4.3026-25.121 9.2549-37.582 14.164-11.008 4.3359-22.293 8.1071-32.887 13.314-11.259 5.5371-23.268 9.0207-34.678 14.119-8.7144 3.8946-17.905 6.8938-26.896 10.062-7.2678 2.5612-14.098 6.235-21.596 8.2695-0.95095 0.25814-1.865 0.63088-2.7832 0.99219v6.8066c2.7675-1.2686 5.4891-2.6645 8.2656-3.9258 1.9599-0.89063 3.9774-1.6904 6.0293-2.3438 3.0226-0.95996 5.9353-2.1829 8.8926-3.2988 4.3093-1.6279 8.416-3.7184 12.705-5.3184 5.6638-2.1119 11.387-4.0568 16.998-6.3262 1.8692-0.75598 3.7558-1.441 5.541-2.4023 1.1307-0.60933 2.3602-1.0932 3.6016-1.4238 1.6879-0.44933 3.2804-1.0466 4.7656-1.9746 2.6026-1.6266 5.7121-1.9151 8.4707-3.1816 5.3598-2.4612 10.784-4.7883 16.188-7.1562 3.0279-1.328 6.0657-2.5954 9.2441-3.5859 3.2746-1.0213 6.4191-2.5039 9.543-3.9531 6.9238-3.2146 14.031-5.9729 21.115-8.8008 5.8798-2.3466 11.724-4.7802 17.58-7.1855 2.5292-1.0387 5.0517-2.093 7.5703-3.1582 1.3439-0.56931 2.7409-0.96067 4.1914-0.94336 2.9972 0.0387 5.6618-0.83795 8.0352-2.6445 0.71197-1.3186-0.30888-1.8798-1.1035-2.5371-0.42079-0.30493-0.89486-0.45602-1.4141-0.45507h-0.00195z" fill="#5e5f61" stroke-width=".99997"/><g fill="#505052"><path transform="matrix(1 0 0 1 -.00093021 0)" d="m0 323.31v9.1816c2.6399 1.0193 7.8042-0.76967 11.348-0.15234-3.5812-2.8432-7.0907-7.2567-11.348-9.0293z" stroke-width="1.3333"/><path transform="matrix(1 0 0 1 -.00093021 0)" d="m188.46 127.87c-0.53731 4e-3 -1.0975 0.28088-1.6055 0.51953-0.65466 0.31066-0.81596 1.4191-0.30664 1.8418 0.21864 0.17997 0.44917 0.35443 0.70117 0.48242 0.98929 0.50265 2.4267 0.69903 2.2188 2.2109-0.15999 1.1653-1.4096 1.28-2.3281 1.6426-1.7412 0.68665-3.4747 1.1908-5.4199 1.1602-2.4266-0.0387-4.1157 2.3232-3.6504 4.7031 0.16799 0.85732 1.1195 1.3906 2.6621 1.3398 0.74797-0.11467 1.7364-0.33497 2.7363-0.4043 2.2172-0.15333 3.888-0.79861 4.1094-3.4238 0.0973-1.1707 1.1726-1.5465 2.2285-1.6719 2.1559-0.25599 3.169-1.8072 3.9902-3.5352 0.64532-1.356 0.30757-2.5837-0.90039-3.4023-1.3333-0.90263-2.8129-1.4709-4.4356-1.4629z" stroke-width=".99997"/><path transform="matrix(1 0 0 1 -.00093021 0)" d="m21.73 321.96c-8.1091 0.24602-13.1 16.354-4.6504 7.7774 5.5069 2.2634 7.5706-3.9224 4.6504-7.7774z" stroke-width="1.3333"/></g><g stroke-width=".99997"><path transform="matrix(1 0 0 1 -.00093021 0)" d="m174.51 126.07c-0.40665-0.0102-0.85137 0.21162-1.3047 0.51562-0.18534 0.0333-0.36936 0.06811-0.55469 0.10547-0.71197 0.27466-1.1746 0.89508-1.8106 1.2617-0.32532 0.13066-0.64715 0.27082-0.98046 0.38281-0.55998 0.11733-1.134 0.14658-1.6992 0.28125-1.272 0.98129-2.4039 2.0156-1.3945 3.8223 0.65732 0.32798 1.3154 0.65637 1.9727 0.98437 0.29466 0.29732 0.59012 0.59269 0.88477 0.88867 0.28265 0.28667 0.56436 0.57272 0.8457 0.85938 0.12265 0.53198 0.18653 1.1765 0.75586 1.3672 0.85863 0.28798 1.183-0.43771 1.4883-1.0391 0.184-0.36131 0.28197-0.76706 0.41797-1.1523 0.24133-0.47333 0.48759-0.77334 0.76758-0.02539l0.01953-0.01953c0.29732 0.29065 0.59052 0.58722 0.83984 0.92187 0.30132 0.55332 0.60297 1.1074 0.9043 1.6621 0.24532-0.32532 0.58687-0.55539 0.85351-0.85937l0.00391-0.00782c0.81464-0.67997 0.06122-1.8705 0.83985-2.5625l-0.10743-1.1562c-0.56131-0.25731-0.8427-0.70318-0.83203-1.3125 0.024-1.4092-0.22468-2.7632-0.83398-4.0352-0.30133-0.62866-0.66949-0.87264-1.0762-0.88281z" fill="#66676a"/><path transform="matrix(1 0 0 1 -.00093021 0)" d="m200 120.48c-1.2675 0.26993-2.5014 0.68119-3.707 1.1562-0.56798 0.22399-0.92617 0.98019-1.3809 1.4922 1.6964-0.2678 3.3924-0.53652 5.0879-0.80469v-1.8438z" fill="#696b6d"/><path transform="matrix(1 0 0 1 -.00093021 0)" d="m172.88 133.04c-0.74265 0.4213-0.05139 0.90451 0.2539 1.3125 0.25599-0.0107 0.51159-0.02009 0.76758-0.02539 1e-3 -0.13866 0.02-0.28135 0-0.41602-0.088-0.59864-0.38017-1.2351-1.0215-0.87109z" fill="#646567"/></g><path transform="matrix(1 0 0 1 -.00093021 0)" d="m118.35 318.95c-9.2898-0.92435-12.234 18.651-1.8887 9.1953 6.6238 0.5324 7.7645-4.2043 3.8281-8.7207-0.67368-0.25851-1.3201-0.41298-1.9394-0.47461z" fill="#3a393a" stroke-width="1.3333"/><g stroke-width=".99997"><path transform="matrix(1 0 0 1 -.00093021 0)" d="m9.7949 71.867c-0.82725-0.037669-1.7068 0.092795-2.6191 0.41211-2.6008 0.91082-4.9037 0.94288-7.1758 0.16797v25.385c0.65807 1.1564 1.607 2.1794 2.4531 3.2344 0.42132 0.11733 0.843 0.21817 1.2656 0.32617 0.42133 0.14399 0.83302 0.30258 1.2344 0.5039 0.65464 0.192 1.3083 0.12767 1.959 0.07032 0.42132 0.0907 0.82183 0.00498 1.2031-0.12696 0.33599-0.0973 0.62285-0.31018 0.85352-0.54882 0.112-0.068 0.22651-0.17936 0.33984-0.25-3e-3 0.04 0.34365-0.20282 0.34766-0.16016 3e-3 0.0427 0.35662-0.11166 0.36328-0.07031 5e-3 0.0413 0.36238-0.068 0.37305-0.0293 0.27199 0.0453 0.52464 0.00296 0.7793-0.05664 0.42665 0.0213 0.82494-0.11125 1.2383-0.16992 0.28265-0.0827 0.5456-0.19709 0.79492-0.34375 0.24799-0.128 0.48862-0.27708 0.72461-0.42774 0.003998 0.012 0.36967-0.19755 0.375-0.18555 0.004998 0.0107 0.38263-0.16948 0.39062-0.16016 0.28266-0.093299 0.55718-0.1944 0.83984-0.28906 0.45732-0.15866 0.91235-0.31613 1.375-0.4668 0.52131-0.16266 1.0406-0.30652 1.5605-0.47852 0.56531-0.22533 1.0659-0.52398 1.3633-1.084 0.24665-0.34132 0.50721-0.66519 0.7832-0.97852 0.42266-0.48398 0.77664-1.0097 1.0312-1.5977 0.15866-0.88797-0.17056-1.6694-0.5332-2.4414-0.18533-0.37065-0.38504-0.73448-0.5957-1.0918-0.22799-0.33733-0.46809-0.67087-0.71875-0.99219-0.24665-0.31599-0.49801-0.62942-0.75-0.94141-2.7626-3.8599-5.7288-7.6595-3.8223-12.904-0.94797-2.5669-2.9518-4.1917-5.4336-4.3047z" fill="#bec0c2"/><path transform="matrix(1 0 0 1 -.00093021 0)" d="m0 50.469v24.746c1.6888 0.86819 3.81 1.2276 5.6445 0.15625 3.1079-1.8159 5.7536-1.2055 8.2988 0.98242 0.90663 4.8371 3.6562 7.7574 8.5547 8.916 3.1919 0.75464 5.9307 2.7825 8.8652 4.2305 1.9652 0.97064 1.7903 7.3707 0.066407 10.238-0.28666 1.8879 1.1404 2.4361 2.4297 3.0547 7.3197 3.5186 14.54 7.2531 22.359 9.625 2.8612 0.86664 4.3488-1.3144 6.3008-2.5156 0.99305-1.3236 0.49849-2.369-0.68555-3.082 3.0155 2.0304 6.2579 3.8736 9.6133 5.5645 0.11866 0.15465 0.24205 0.30236 0.35938 0.45703 0.21999 0.32398 0.44902 0.63712 0.67969 0.95312 0.27732 0.29066 0.60872 0.48727 0.99805 0.58594 0.38532 0.068 0.77347 0.13575 1.1602 0.20508 0.59065 0.0987 1.1859 0.10608 1.7832 0.08203 1.0013-0.0507 2.0882 0.34038 2.9375-0.54492 0.67864-0.58399 0.80807-1.4379 1.0801-2.2246-0.16799-0.53731-0.16992-1.3365-0.53125-1.5645-1.3587-0.85331-3.2837-1.0031-3.5117-3.123-2.0732 0.42398-2.0542-1.4664-2.8262-2.5117-0.69064-0.93463-1.5057-1.7856-2.8457-1.543-1.2933 0.23333-2.1798-0.41634-3.0078-1.2656-0.49865-0.51062-0.99212-1.0392-1.5508-1.4766-1.3493-1.056-2.6382-2.0375-4.6328-1.5469-1.328 0.32665-1.694-0.16848-1.3887-1.623 0.26666-1.268-0.16703-2.0141-1.2656-2.2715-1.1547-0.27065-2.1283-0.67461-2.959-1.5586-1.092-1.164-2.6663-0.87201-4.0488-1.0547-1.0249-0.13464-1.9304-0.29295-2.4609-1.2734-2.4812-1.1227-5.0651-2.0385-7.0703-4.0371-0.58665-0.58532-1.45-0.9526-2.25-1.2539-2.3012-0.86797-4.3504-2.1684-6.4609-3.4004-2.2559-1.3173-4.4967-2.5011-5.6953-5.0156-0.28132-0.59198-0.98973-1.0504-1.5977-1.4023-1.3813-0.79864-2.6956-1.6555-3.7129-2.9102-0.46797-0.57598-1.0583-0.9812-1.8223-1.0332-1.1467-0.079999-1.826-0.77573-2.2793-1.7344-0.57331-1.2107-1.4338-2.1577-2.5645-2.8457-2.6106-1.5893-4.5934-3.9094-6.8359-5.9199-1.7092-1.5319-3.1677-3.3085-4.4062-5.2871-1.1347-1.8119-2.5375-3.4584-3.8574-5.1504-0.21576-0.27723-0.56667-0.5524-0.86328-0.62695z" fill="#b9bbbd"/><path transform="matrix(1 0 0 1 -.00093021 0)" d="m104.36 106.08l-0.00195 0.00195c-0.41399-0.10499-0.89057-0.08084-1.3379 0.03516-0.81331 0.21199-1.5471 0.74712-2.4551 0.56445-1.156-0.23464-1.8852 0.17845-2.2559 1.3438-0.40266 1.2627-1.3849 1.7985-2.6621 1.6465-1.7652-0.21067-2.9998 0.58691-4.0117 1.9082-1.296 1.5172-0.2699 2.9721 0.082031 4.4707 1.012 4.3146-0.35418 6.337-4.666 5.7305-4.9598-0.69731-8.3324 2.7669-12.576 3.8828-6.8265 1.7972-13.624 3.5265-20.672 4.1465-2.0119 0.17599-3.9385 0.79579-5.873 1.373-6.3411 1.8932-12.701 3.7271-19.326 4.3711-0.28666 0.028-0.60819-0.0125-0.85352 0.10352-8.581 4.0866-18.188 3.9515-27.08 6.582-0.22364 0.06612-0.45013 0.11228-0.67383 0.17773v10.029c4.5061-1.5483 9.2328-1.6379 13.807-2.7559 9.569-2.3399 19.053-5.101 28.752-6.877 7.8997-1.4466 15.744-3.0426 23.771-4.0039 14.762-1.7666 29.651-3.3432 43.584-9.543 4.9651-2.2092 9.6089-4.9352 14.512-7.2031 3.3906-3.9146-1.1463-5.2183-2.4902-7.5742-1.5826-1.1693-3.1627-2.339-4.6387-3.4297-0.86131 0.17067-0.99003 0.76767-1.25 1.2637-0.50666 0.96531-1.2346 1.0903-2.084 0.46094-0.76531-0.56665-1.409-1.6281-2.4609-0.35742-0.36265 0.43731-0.80965 0.1902-1.0137-0.20313-1.1947-2.3012-4.0093-3.0328-5.168-5.4102-0.19267-0.39599-0.54304-0.62938-0.95703-0.73438z" fill="#97999c"/><path transform="matrix(1 0 0 1 -.00093021 0)" d="m91.643 111.58c-0.53331 0.0747-1.0663 0.14995-1.5996 0.22461-3.6426 1.6812-7.292 3.2665-11.238 0.83594-0.79597-0.52532-1.6877-0.72802-2.625-0.77735-0.56798 0.50399-1.1352 0.43868-1.6992-0.00976l-0.03711-0.01563c-0.26132-0.31999-0.52073-0.30137-0.77539 0.00977l-0.056641 0.02734c-0.64665 0.26799-1.2869-0.02018-1.9336-0.02148-0.44266 0.112-0.82449 0.3264-1.1484 0.65039-8.8757 11.255-22.323 11.662-34.699 14.27-5.2238 1.1013-10.506 1.896-15.348 4.1172-3.6066 1.6546-7.1868 2.1626-10.902 1.2226-2.3159-0.58665-4.1748-0.36005-6.0254 1.1426-1.0667 0.86653-2.28 1.4177-3.5547 1.7852v10.01c1.6512-0.64412 3.3191-1.2333 5.1172-1.5449 3.5439-0.61463 7.0309-1.4729 10.664-1.5449 2.4866-0.0493 4.7834-1.0113 6.9688-2.1445 2.3332-1.2093 4.7626-1.9639 7.3945-2.1973 6.4945-0.57598 12.678-2.5461 18.885-4.3848 1.9452-0.57732 3.8672-1.103 5.9258-0.98828 0.8533 0.0467 1.7543 0.0513 2.5703-0.16602 4.5918-1.2173 9.3548-1.7084 13.902-2.9551 3.3892-0.9293 7.0703-1.4578 9.9902-3.791 1.7186-1.3733 3.7092-1.4329 5.7559-1.0195 2.3172 0.46798 4.5644 0.44433 6.7363-0.6543 1.9639-0.9933 2.1778-1.4607 1.4219-3.6406-0.094699-0.27065-0.35745-0.5418-0.32812-0.7871 0.37466-3.2172-1.5926-5.3878-3.3633-7.6504l0.001953-0.00195z" fill="#999b9e"/><path transform="matrix(1 0 0 1 -.00093021 0)" d="m173.15 126.5c-0.014 0.0131-0.01209 0.02967-0.02539 0.04297 0.0298 0.0129 0.05223 0.03408 0.08203 0.04688l-0.05664-0.08985z" fill="#c6c8ca"/><path transform="matrix(1 0 0 1 -.00093021 0)" d="m153.95 114.99c-0.51782-0.0977-1.14 0.07512-1.9727 0.42773-0.78664 0.33333-1.5193 0.84553-2.334 1.0469-1.312 0.32398-2.5826 0.20364-3.3691-1.1562-0.24 0.14799-0.48275 0.28673-0.71875 0.4414-5.6691 3.7279-5.6699 3.7297-12.104 2.9004-0.19733 0.092-0.39251 0.18535-0.58984 0.27735-0.092 0.19466-0.18597 0.38933-0.2793 0.58398 0.0133 0.21467 0.02772 0.43182 0.04102 0.64649 3.1999 2.1479 6.0249 4.7538 10.311 5.0898 2.6466 0.20799 4.6015 2.6912 6.6895 4.4004 0.19599 0.37466 0.43294 0.71918 0.68359 1.0606 4.8318 1.036 4.8682 1.0425 5.7441-3.3906 0.19199-0.97463 0.47365-1.62 1.543-1.584 1.092 0.0373 1.4629 0.71442 1.3242 1.7051-0.11733 0.84662-0.152 1.6857-0.05469 2.5391 0.088 0.42131 0.23413 0.81725 0.43945 1.1973 0.15999 0.43199 0.42976 0.76822 0.81641 1.0176 1.9746 0.64132 3.9411 1.37 6.0156 0.38867 0.19731-0.10266 0.40563-0.148 0.62695-0.13867 1.084-0.7093 2.1477-1.4426 2.7637-2.6426 1.0267 0.12532-0.10914 1.7042 1.1309 1.6856 0.74797-0.18532 1.416-0.47084 1.6094-1.3281 0.82797-1.0755-0.17751-2.5902 0.85352-3.6152-2.225-0.96737-4.1177-2.2369-5.5137-4.3867-1.476-2.2732-3.7879-3.4968-6.6211-3.1621-2.5492 0.29999-4.3781-0.46333-5.6953-2.8086-0.40932-0.72998-0.82206-1.0976-1.3398-1.1953z" fill="#c6c8ca"/><path transform="matrix(1 0 0 1 -.00093021 0)" d="m121.94 114.49c-0.14533 0.88264-0.06568 1.7391 0.54101 2.4258 1.1427 1.2947 1.2027 2.8522 1.1934 4.4414-0.0347 0.2013-0.0695 0.40476-0.10547 0.60742 4e-3 0.41331 0.12678 0.78616 0.35742 1.1328 3.3999 1.7719 5.4508-1.2875 8.084-2.2715 0.35866-0.18931 0.62893-0.46823 0.82226-0.82421 0.06-0.39066 0.16203-0.77191 0.30469-1.1426 0 0 0.31897-0.20899 0.32031-0.20899-1.048-0.41864-2.0638-1.0569-3.1504-1.2129-3.0026-0.43198-5.6513-1.7606-8.3672-2.9473z" fill="#b8babc"/><path transform="matrix(1 0 0 1 -.00093021 0)" d="m90.041 111.81c-2.3892 0.21199-4.8395-0.18361-7.0781 1.2363-1.028 0.65064-1.8109-0.44515-2.5176-1.1465-0.54798 0.248-1.0946 0.49419-1.6426 0.74219 1.8532 1.7199 4.5029 1.7507 6.5508 3.0801 0.49331 0.31999 1.1336 0.02918 1.543-0.41211 1.0653-1.1507 2.098-2.332 3.1445-3.5z" fill="#a0a2a5"/><path transform="matrix(1 0 0 1 -.00093021 0)" d="m136.39 123.9c-0.72934-7e-3 -1.489 0.21297-2.2402 0.37696-4.7598 1.176-9.0896 3.6213-13.281 5.8652-7.8624 4.2066-16.428 5.6796-24.705 8.3262-9.4584 3.0252-19.178 4.2527-28.893 5.8594-3.7506 0.61998-7.3353 2.8506-11.287 3.668-2.4719 0.51065-4.8398 1.1708-7.4023 0.9375-6.3678-0.57999-12.293 1.7153-18.418 2.8086-8.405 1.5012-16.419 4.7443-25.162 4.9043-1.6907 0.03103-3.351 0.33205-5.002 0.71875v7.873c7.8113-2.8125 16.075-3.4362 24.236-4.5762 4.0999-0.57197 8.2215-1.2924 12.15-2.4844 3.5226-1.0693 7.0325-1.7415 10.674-1.9375 0.44798 0.0307 0.87603-0.0705 1.3066-0.17188 8.0904-1.6212 16.156-3.3462 24.264-4.8516 1.3027 0.0213 2.4904-0.44531 3.6797-0.89063 4.6185-1.5786 9.0148-3.8841 13.986-4.3281 0.38665-0.028 0.77298-0.07841 1.1543-0.15039 0.55465-0.176 1.0946-0.39323 1.6426-0.58789 0.37066-0.108 0.74203-0.22066 1.1113-0.33399 2.0959-1.02 4.2734-1.8004 6.5586-2.2871 0.39333-0.08268 0.78196-0.17593 1.1699-0.28124 0.76398-0.34533 1.5362-0.66653 2.2734-1.0625 11.832-1.736 22.032-7.6118 32.488-12.84 1.532-0.76663 2.5025-1.7308 1.752-3.5801-0.62799-0.7353-1.3273-0.96802-2.0566-0.97461z" fill="#8a8c8e"/><path transform="matrix(1 0 0 1 -.00093021 0)" d="m132.84 119.34c-0.14654-2e-3 -0.29531 0.08071-0.44531 0.24804l-0.00391-0.03125c-0.17598 0.24-0.40608 0.40038-0.6914 0.48438-0.26667 0.11866-0.51854 0.26159-0.75586 0.43359-0.21867 0.20666-0.43377 0.41239-0.64844 0.62305-0.22932 0.21733-0.44054 0.44289-0.64453 0.68555-0.0987 0.13199-0.19493 0.26058-0.29492 0.39257-0.22667 0.25599-0.46132 0.4921-0.72266 0.71875-0.30264 0.21599-0.62201 0.38248-0.97265 0.50782-2.8159 1.7786-5.5741 3.6815-9.1445 3.4082-0.35464 0.15467-0.70856 0.32685-1.0605 0.49219-0.86664 0.38131-1.7929 0.59416-2.6836 0.91015-0.35598 0.10399-0.70735 0.22428-1.0566 0.34961-1.2452 0.37199-2.4165 0.93645-3.6191 1.4258-0.36531 0.124-0.72455 0.2512-1.0898 0.36719-1.9546 0.37466-3.676 1.3751-5.5332 2.0098-0.56798 0.172-1.1401 0.32965-1.7188 0.45898-0.77331 0.16133-1.5578 0.26377-2.3164 0.48242-0.37066 0.1-0.74136 0.21089-1.1094 0.32422-0.90263 0.24266-1.7827 0.5837-2.7227 0.67969-0.35466 0.0467-0.7062 0.12123-1.0488 0.22656-0.49865 0.17066-1.0021 0.33226-1.498 0.51758-0.33599 0.10533-0.66792 0.21941-1.0039 0.33008-0.52132 0.15332-1.0468 0.28883-1.5801 0.41016-0.37066 0.09068-0.7343 0.1902-1.0996 0.29687-0.18533 0.0587-0.36607 0.12112-0.55273 0.17578-0.38265 0.0947-0.7619 0.19388-1.1445 0.2832-4.3132 1.9479-9.0082 1.3818-13.514 2.0645-0.40531 0.0827-0.80372 0.1793-1.2051 0.27929-3.8252 0.83998-7.7872 0.98783-11.525 2.2852-0.40532 0.17467-0.80746 0.35544-1.2168 0.52344-5.0971 4.7665-11.02 3.8289-17.012 2.4902-0.55464-0.124-1.1325 0.06557-1.7031 0.07227-0.69198 0.024-1.3829 0.06071-2.0723 0.13672-1.3293 0.12401-2.4212 0.5878-3.0879 1.8691-0.51999 0.99997-1.4916 1.3842-2.5195 1.0215-3.2492-1.144-6.3445 0.1816-9.5098 0.4336-0.63864 0.23465-1.2769 0.4816-1.9355 0.65625-1.2773 0.28132-2.5784 0.49806-3.7344 1.166-0.37199 0.18267-0.74511 0.37222-1.1211 0.54688-1.1507 0.51865-2.3607 0.67883-3.6152 0.57617-0.43332-0.0413-0.86172-0.03098-1.291 0.01562-4.0804 1.4811-8.388 1.6008-12.615 2.1895v6.4726c1.0075-0.25351 2.0188-0.49169 3.0254-0.75 4.0172-1.0307 8.2404-1.2917 12.389-1.7637 2.1639-0.24666 4.2723-0.6054 6.2949-1.416 1.2093-0.48532 2.4383-0.90425 3.7637-0.87891 1.3253 0.024 2.5342-0.39285 3.7676-0.82617 1.3507-0.47333 2.7477-0.9378 4.1582-1.0938 2.3012-0.25468 4.5486-0.63156 6.7578-1.3516 2.0852-0.67863 4.2777-0.58281 6.4336-0.52148 6.7478 0.19333 13.106-1.5199 19.297-3.9531 2.9906-1.1747 6.0839-1.6642 9.2305-2.1016 4.2692-0.59197 8.5146-1.3632 12.77-2.0605 0.14134-0.024 0.29007-0.05381 0.41406-0.11915 5.0505-2.6719 10.674-3.4054 16.119-4.7187 5.4851-1.3227 10.768-3.0548 15.736-5.832 3.2546-1.8199 6.7837-3.1469 10.195-4.6855 1.2027-0.54266 2.493-0.6851 3.793-0.75977 2.6412-2.6706 1.4474-4.8615-0.86719-6.9121l-0.00195-0.00195c-0.14467-0.17333-0.28901-0.26126-0.43555-0.26367z" fill="#8e9093"/><path transform="matrix(1 0 0 1 -.00093021 0)" d="m157.42 126.35c-1.5457 0.02648-1.6665 1.2311-1.6758 2.3984-0.0107 1.2213-0.96448 1.6063-1.7871 2.125-8.4984 0.68263-15.567 5.4816-23.395 8.0762-9.865 3.2692-19.278 7.6631-28.893 11.543-5.1331 2.0719-10.555 3.4629-15.43 6.2148-2.5119 3.4546-5.9018 5.0497-10.141 4.6524-1.3693-0.12933-2.6227-0.07728-3.6387 0.86133-5.6665 5.2318-13.087 6.8201-20.004 9.2188-5.2651 1.8252-10.307 3.9998-15.324 6.3438-1.2507 0.58397-2.5452 1.2242-3.9277 1.4375-11.197 1.7239-20.551 8.2924-31.053 11.758-0.7363 0.243-1.4229 0.5967-2.1504 0.85937v4.209c4.2882-1.8765 8.6019-3.6898 13.039-5.2168 1.2173-0.41998 2.4466-0.91191 3.5332-1.5879 1.8772-1.1707 3.7758-1.9908 6.0664-1.8828 1.6346 0.0773 3.0604-0.73394 4.3496-1.6992 2.1132-1.5826 4.5071-2.4335 7.043-3.1309 2.9039-0.79864 5.7103-1.9548 8.5449-2.9961 5.9425-2.1799 11.884-4.3651 17.807-6.5996 1.2053-0.45466 2.311-1.1677 3.4883-1.7051 1.044-0.47733 2.094-0.98971 3.1953-1.291 6.2745-1.7146 12.128-4.4753 18.049-7.0898 3.8132-1.6839 7.7022-3.2094 11.629-4.6094 4.7532-1.6946 9.3909-3.6363 13.902-5.8828 1.5652-0.77864 3.1873-1.3414 4.918-1.5508 2.4666-0.3 4.7274-1.1228 6.9141-2.3066 2.5292-1.3693 5.2229-2.3535 7.9668-3.2734 5.0318-1.6892 9.931-3.7597 14.912-5.5996 6.1905-2.2866 12.135-5.3181 18.783-6.2461 0.68798-0.096 1.3316-0.52418 1.9942-0.79883-1.796-0.41732-3.8482-0.00801-5.2734-1.627-0.17866-0.38399-0.47614-0.67878-0.74414-0.9961l-0.00781-0.01953c-0.49066-0.29198-0.96076-0.62375-0.96876-1.2598-0.01468-1.2073-0.18165-2.3509-1.7207-2.3281h-0.00195z" fill="#646567"/><path transform="matrix(1 0 0 1 -.00093021 0)" d="m170.27 129.08c-0.11682-0.10949-0.28616-0.13449-0.52148 0.02344-0.16 0.10667-0.15395 0.46046-0.22461 0.70312 0.12399 0.73065 0.25353 1.4583 1.1309 1.6836-0.0533-0.64531-0.06581-1.2976-0.17383-1.9336-0.0293-0.17465-0.0941-0.36706-0.21094-0.47656z" fill="#646567"/><path transform="matrix(1 0 0 1 -.00093021 0)" d="m173.15 126.5c-0.66532 1.1293-0.90024 2.3622-0.87891 3.6582 0.84264-1.088 0.74157-2.401 0.87891-3.6582z" fill="#c0c1c4"/><path transform="matrix(1 0 0 1 -.00093021 0)" d="m26.465 93.609c-2.1186 0.087999-4.127 0.81266-6.1523 1.3887-0.43332-9e-3 -0.82626 0.11857-1.1836 0.36523l-0.02539 0.017578c-0.43064 0.54398-1.2435 0.32901-1.6875 0.84766-0.56264 0.012-1.1262 0.024456-1.6875 0.035156-0.30665 0.25999-0.60459 0.52798-0.89258 0.80664l-0.91016-0.73047c-0.25999-0.35332-0.53976-0.38932-0.84375-0.054688l0.011719-0.02539c-0.32799 0.27333-0.5959 0.60365-0.86523 0.93164-9e-3 0.26265-0.030594 0.52446-0.058594 0.78711-0.84664 0.63865-1.6893 0.64381-2.5293-0.009766l-0.023438-0.011719c-0.132-0.098699-0.26449-0.19627-0.39648-0.29492-0.34266-0.035999-0.63572 0.063117-0.87305 0.31641-0.091997 0.31999-0.25266 0.60284-0.47266 0.85352l-0.0019531 0.015625c-0.27733 0.29466-0.56623 0.57856-0.85156 0.86524-0.58264 0.73197-1.1869 0.45635-1.7949 0.039062-0.25066 5e-3 -0.50192 0.001133-0.75391-0.009765-0.51198 0.44265-1.1403 0.34238-1.7402 0.37304-0.89873 0.4532-1.808 0.82544-2.7324 1.1582v36.346c1.5693-0.30718 3.0491-0.88439 4.3105-2.0098 1.5972-1.4252 3.1706-1.8894 5.0332-0.55079 0.33599 0.24133 0.81574 0.45788 1.2051 0.42188 2.5652-0.23199 5.1152-0.48734 7.7031-0.16602 0.86797 0.10666 1.5962-0.6166 2.1855-1.2539 1.328-1.44 3.0432-2.0843 4.8672-2.627 4.1479-1.2334 8.3046-2.1543 12.67-2.4863 5.0171-0.38266 9.9262-1.7062 14.582-3.7168 1.4719-0.63598 2.9227-1.203 4.5332-1.291 5.0331-0.27464 8.984-2.7218 12.439-6.1816 0.53331-0.53465 0.87414-1.1405 0.99414-1.8672 0.19332-1.1679 0.72884-2.1754 1.3809-3.1367-0.097299-0.41199-0.30068-0.76045-0.61133-1.0352-3.2426-0.89997-6.1866-2.9773-9.7852-2.5-0.55331 0.16-1.1258 0.26499-1.6523 0.48633-2.0959 0.8773-3.9802 0.44555-5.6016-1.0117-1.2427-1.1173-2.4269-1.784-4.2441-1.3906-1.7586 0.37999-3.4697-0.39541-4.7402-1.6113-1.7319-1.6572-3.862-2.4073-6.002-3.25-2.1186-0.83465-4.172-1.8403-6.252-2.7695 0.17466-3.9972-2.2042-6.2438-6.5508-6.0625z" fill="#a0a2a5"/><path transform="matrix(1 0 0 1 -.00093021 0)" d="m0 89.201v15.238c1.8334-0.20434 2.3647-1.0092 3.584-3.8281 0.24933-0.20934 0.327-0.41204 0.23633-0.60938-0.090558-0.19331-0.17897-0.29101-0.26562-0.29101-0.36799-0.77997-0.6672-1.6016-1.1191-2.3281-0.72397-1.168-1.0612-2.3668-0.58789-3.6895 0.63732-1.7772 0.027758-3.0444-1.4629-4.0684-0.16526-0.11331-0.24033-0.29474-0.38477-0.42383z" fill="#c4c6c8"/><path transform="matrix(1 0 0 1 -.00093021 0)" d="m13.945 76.354c-2.5772 2.3919-1.9049 5.1765-0.6582 7.7871 1.152 2.4132 2.7253 4.6239 4.1133 6.9238 0.31066 0.26533 0.56729 0.58524 0.86328 0.86524 0.29866 0.27865 0.55334 0.5992 0.86133 0.86719l0.86914 1.7285c-0.26532 0.19199-0.35042 0.38037-0.25977 0.56836 0.089299 0.18666 0.17888 0.28125 0.26953 0.28125 0.61732 0.65331 1.3542 1.0639 2.2715 1.0332 0.71464-0.0253 1.4373-0.054304 2.1387-0.17969 3.5906-0.63998 6.5042 0.37409 8.6016 3.4434 1.8639-1.1853 1.9218-3.0465 1.8711-4.957-0.028-1.0013-0.03388-1.9534 0.69141-2.8359 1.7146-2.0906 1.669-2.117-0.37891-3.6543-1.272-0.95464-2.5707-1.7206-4.2227-1.9766-3.1266-0.48398-5.6786-1.9375-7.084-4.9707-0.17333-0.37732-0.47509-0.75124-0.81641-0.97656-0.31866-0.21199-0.80706-0.37573-1.1523-0.28906-0.46132 0.116-0.38507 0.64158-0.42773 1.0723-0.13466 1.3307-0.48831 1.5396-1.3496 0.93164-1.196-0.84397-2.1514-1.8923-2.834-3.1855-0.72398-1.3707-1.9365-2.0699-3.3672-2.4766z" fill="#c7c9cb"/><path transform="matrix(1 0 0 1 -.00093021 0)" d="m7.7441 96.33c-0.15199-0.077299-0.47098 0.12652-0.68164 0.25586-0.058698 0.034698-0.05042 0.30049 0.017578 0.39648 0.24665 0.34666 0.53145 0.66678 0.80078 0.99609 0.28799 0.35599 0.56733 0.36452 0.83398-0.023438l0.0078124-0.017578c0.27332-0.17599 0.36915-0.3563 0.28516-0.54297-0.083997-0.18799-0.17044-0.2832-0.25977-0.2832-0.32933-0.26933-0.63193-0.59593-1.0039-0.78125z" fill="#c4c6c8"/></g><g fill="#b9bbbd" stroke-width=".99997"><path transform="matrix(1 0 0 1 -.00093021 0)" d="m7.0254 99.713l-1.7949 0.039062c0.61065 0.59732 1.2163 0.88362 1.7949-0.039062z"/><path transform="matrix(1 0 0 1 -.00093021 0)" d="m9.6348 97.969c0.84131 0.50665 1.684 0.51348 2.5293 0.009766-0.84264-4e-3 -1.6866-0.005766-2.5293-0.009766z"/><path transform="matrix(1 0 0 1 -.00093021 0)" d="m3.5547 99.711c0.0089999 0.29999 0.019997 0.59905 0.029297 0.90039 0.29466-0.29067 0.58815-0.57982 0.88281-0.86914-0.30399-0.0107-0.60812-0.020652-0.91211-0.03125z"/><path transform="matrix(1 0 0 1 -.00093021 0)" d="m8.7148 97.955c-0.27732 7e-3 -0.55338 0.014138-0.83203 0.023438-1e-3 0.28399-0.0028594 0.56757-0.0058594 0.85156 0.27999-0.29199 0.5579-0.58301 0.83789-0.875z"/><path transform="matrix(1 0 0 1 -.00093021 0)" d="m8.7441 97.111c-0.0079999 0.27599-0.017392 0.55151-0.025391 0.82617 0.29732 7e-3 0.59587 0.014231 0.89453 0.019531-0.29066-0.28132-0.57982-0.56438-0.86914-0.8457z"/><path transform="matrix(1 0 0 1 -.00093021 0)" d="m19.994 94.525c-0.28932 0.27999-0.57724 0.5579-0.86524 0.83789 0.29066 3e-3 0.58302 0.007999 0.875 0.011719-1e-3 -0.28266-0.003765-0.56695-0.009765-0.84961z"/></g><g stroke-width=".99997"><path transform="matrix(1 0 0 1 -.00093021 0)" d="m132.39 119.56c-1.2012-0.23734-2.2005 0.12192-3.0644 0.97656-1.2813 1.268-2.8876 1.6658-4.6328 1.6524-0.30532-0.26266-0.6107-0.52446-0.91602-0.78711 0 0-0.10804-0.04102-0.10937-0.04102-2.9479-0.86397-5.3785-0.13022-7.3144 2.291-0.83732 1.048-1.9826 1.6748-3.3106 1.8828-1.8826 0.29467-3.5539 1.0905-5.2285 1.957-1.2706 0.65731-2.6454 1.1226-3.9961 1.6133-0.94529 0.34532-2.0002 0.44893-2.8789 0.90625-4.4531 2.3159-9.3863 2.5776-14.176 3.4629-1.2733 0.23466-2.5393 0.50182-3.8086 0.75782-0.14134 0.02798-0.28002 0.06721-0.41602 0.11523-3.2026 1.12-6.6112 0.43809-9.8418 1.082-3.2399 0.64663-6.387 1.7042-9.7695 1.4922-2.7519-0.17333-5.4533 0.28812-8.1172 0.99609-2.9226 0.7773-5.8993 1.2598-8.8926 1.7305-3.3959 0.53465-6.7122 1.5949-10.047 2.4883-2.5199 0.67464-5.0211 1.316-7.6543 0.69336-1.2093-0.28533-2.2973 0.03224-3.2227 0.82422-2.4159 2.0706-5.3224 2.7354-8.377 3.0859-1.5692 0.18-3.1529 0.42444-4.6621 0.87109-2.7786 0.82263-5.5665 1.4487-8.4824 1.4473-1.2283-7.6e-4 -2.3726 0.34656-3.4727 0.83789v5.334c1.9395-0.4858 3.912-0.75527 5.9141-0.56054 2.8372 0.27598 5.3349-0.9919 8.0215-1.3398h0.86523c1.7226 1.112 2.991-0.03062 4.3242-0.86523 0.95997-0.96131 2.3323-1.0998 3.459-1.7305h1.7305c5.4038-0.66798 10.399-2.799 15.564-4.3203h1.7305c7.1878 1.2892 13.948-0.84377 20.756-2.5957 2.1706-1.44 4.381-2.4937 7.1582-1.8203 1.36 0.32932 2.8053-0.06542 4.084-0.77344h0.86523c5.1558-1.0653 10.608-0.33378 15.564-2.5938 0.28799-0.31199 0.57724-0.31199 0.86524 0h0.86523c0.45066-0.54132 1.2712-0.33859 1.7285-0.86523 0.46265-0.51599 1.2678-0.34792 1.7305-0.86524 1.2893-1.0467 3.0329 0.1814 4.3223-0.86523 0.6893-0.81596 1.909-0.04264 2.5957-0.86523h1.7285c2.2066-1.1333 4.6227-1.7071 6.9199-2.5938 1.3787-0.73596 2.9457-0.99446 4.3242-1.7305 0.9853-0.95463 2.4723 0.08936 3.459-0.86524 3.0999-3.2199 7.7531-3.5568 11.242-6.0527 0.288-0.28799 0.57726-0.57591 0.86523-0.86524-0.22664-0.19199-0.30256-0.38418-0.22656-0.57617 0.0747-0.192 0.15057-0.28711 0.22656-0.28711 0.288-0.28934 0.57725-0.57725 0.86524-0.86523 0.29732-0.27866 0.552-0.59796 0.86133-0.86328-7e-3 -0.30399-0.01294-0.60617-0.01954-0.91016z" fill="#919395"/><path transform="matrix(1 0 0 1 -.00093021 0)" d="m50.914 97.299c-0.33632-0.12834-0.73682-0.13974-1.2734 0.15625 3.6746 4.2826 7.6456 8.1435 11.865 11.764 0.78264 2.0599 2.1711 3.1319 4.4805 3.0879 1.6746-0.0307 3.354 0.24354 5.0312 0.38086 0.37732-0.42799 0.90157-0.42857 1.4082-0.47656 0.13067-0.10934 0.26254-0.2188 0.39453-0.32813-0.67064-0.94529-1.4098-1.8582-2.4512-2.3809-6.5571-3.3012-12.359-7.8006-18.566-11.656-0.27932-0.17332-0.55235-0.41854-0.88867-0.54688z" fill="#cbccce"/><path transform="matrix(1 0 0 1 -.00093021 0)" d="m73.611 111.87c-0.26465 0-0.52705-2.7e-4 -0.78906 0.0039l-0.009766 0.00586c-0.66798 0.224-0.68663 0.4927-0.054688 0.80469 0.28399-0.27199 0.56953-0.54379 0.85352-0.81445z" fill="#a0a2a5"/><path transform="matrix(1 0 0 1 -.00093021 0)" d="m72.812 111.88c-0.59864 0.268-1.1962 0.5328-1.7949 0.80078 0.29466 0.0213 0.58816 0.04371 0.88281 0.06641 0.28533-0.024 0.5721-0.0452 0.85742-0.0625 0.0187-0.26799 0.037388-0.53669 0.054688-0.80469z" fill="#b9bbbd"/><path transform="matrix(1 0 0 1 -.00093021 0)" d="m143.66 126.21v0.00195c-7.6437 1.6252-14.016 6.2829-21.264 8.8281-5.5198 1.9386-10.723 4.8026-16.602 5.7812-3.8906 2.3519-9.2232 2.1656-11.609 6.9707 0.054699 0.45997 0.24065 0.85657 0.55664 1.1992 2.4892 1.308 4.9719 0.49939 7.0918-0.61524 7.925-4.1626 16.488-6.6673 24.719-10.016 4.6091-1.8746 9.7343-2.8604 13.676-6.2402 2.2186-1.9026 4.4016 0.34881 6.6016 0.05274 1.5506-0.80931 3.7242-0.04652 4.9668-1.7559 0.13598-0.50933 0.05658-0.97374-0.2461-1.4004-0.0893-0.24934-0.1987-0.48747-0.33203-0.7168-2.0679-2.3119-5.2174-0.73661-7.5586-2.0898z" fill="#7f8184"/><path transform="matrix(1 0 0 1 -.00093021 0)" d="m133.28 119.6v0.00196c0.28932 2.3039 0.57786 4.6062 0.86719 6.9102l3.4531-0.84375c0.68798 1.148 1.2956 2.2205 3.0488 1.8418 1.2933-0.27866 2.7176-0.23809 3.8828 0.69922 1.112 0.23866 2.2277 0.45314 3.3477 0.0625 1.12-0.39066 2.2293-0.24989 3.3398 0.02734-0.40531-0.93196-0.89741-1.7843-1.9707-2.0723-0.54532-0.14533-1.2865-0.07862-1.6172-0.41993-1.6866-1.7412-3.6597-2.4711-6.0703-2.2578-0.49599 0.044-1.196-0.25673-1.5293-0.63672-1.8026-2.0612-4.3773-2.4658-6.752-3.3125z" fill="#8f9194"/><path transform="matrix(1 0 0 1 -.00093021 0)" d="m157.72 122.42c-0.96314 0.04798-1.9018 0.62474-2.5918 1.7207-0.70397 1.1173-1.0258 2.2832-0.87109 3.6777 0.15333 1.376-0.15788 1.5022-1.8672 1.4062-0.28265-0.016-0.55923-0.13443-0.83789-0.20508l-0.11914 0.9629c0.67199 2.1879 1.9335 2.0753 3.4707 0.88867 0.75464-0.42132 1.3781-0.92491 1.8555-1.7129 0.61866-1.0213 0.75707-0.09749 0.92774 0.36914 0.57063 1.5719 1.5364 0.75475 2.4258 0.41211 0.32399-0.95063 0.63453-1.905 0.97851-2.8477 0.44265-1.2107 0.11188-2.2587-0.63476-3.2227-0.78664-1.0174-1.7733-1.4972-2.7363-1.4492z" fill="#9ea0a3"/><path transform="matrix(1 0 0 1 -.00093021 0)" d="m133.13 118.86c-0.24665 0.24266-0.49358 0.48392-0.74024 0.72656 0.29466 5e-3 0.58816 0.01033 0.88282 0.01563-0.024-0.25333-0.0719-0.49953-0.14258-0.74219z" fill="#8f9194"/><path transform="matrix(1 0 0 1 -.00093021 0)" d="m94.762 143.31c-0.43938 0.06-0.86299 0.21982-1.2656 0.50781h-0.86524c-0.44931 0.53998-1.2712 0.33726-1.7285 0.86524-4.9691 1.204-10.056 2.015-14.701 4.3242l-3.4609 0.86132c-6.6065 2.5746-13.849 2.1834-20.531 4.4141-1.5052 0.50265-3.0456 0.66278-4.5469-0.08789-6.4545 2.0106-13.354 1.9963-19.684 4.8828-4.5665 2.0826-9.865 2.0392-14.816 2.6992-4.4289 0.58963-8.8302 1.1952-13.162 2.2285v5.6074c8.4909-1.5993 17.155-2.2397 25.51-4.6055 0.54532-0.15466 1.1778-0.03861 1.7031-0.25196 10.88-4.4186 22.644-5.0015 33.85-7.8867 10.712-2.7586 21.444-5.6445 31.896-9.3457 1.6466-0.58264 4.2233-1.1458 3.166-4.123-0.46864-0.11-0.92388-0.14988-1.3633-0.08984z" fill="#888a8c"/><path transform="matrix(1 0 0 1 -.00093021 0)" d="m137.6 125.67c-0.44266 0.3653-0.8299 0.873-1.3379 1.0703-2.5599 0.99331-4.7908 2.5229-7.1348 3.9121-3.3092 1.9612-6.9826 3.3182-10.523 4.8809-1.572 0.69465-3.233 1.1915-4.793 1.9102-1.456 0.66798-2.9722 1.0492-4.5176 1.3945-2.1026 0.46799-4.188 1.0076-6.2812 1.5156-0.44932 0.54132-1.2731 0.33725-1.7305 0.86523-1.5107 0.94797-4.1015 0.06545-4.6055 2.7188 1.6186 2.1466 3.4687 0.42927 5.0859 0.11328 1.6239-0.31865 3.1297-1.3183 4.7109-1.9648 2.9972-0.91997 5.8205-2.3138 8.9297-2.9805 1.76-0.37732 3.3013-1.6715 5.0332-2.2969 5.6425-2.0372 11.351-3.8712 16.637-6.8164 2.2599-1.26 4.8778-1.5759 7.459-1.7812-1.9052-1.9519-4.4552-2.141-6.9297-2.541h-0.00195z" fill="#888a8c"/></g><g fill="#888a8d" stroke-width=".99997"><path transform="matrix(1 0 0 1 -.00093021 0)" d="m45.572 153.89c-4.7672 0.93976-9.6631 1.5393-14.229 3.0938-4.2506 1.4466-8.5185 2.2504-12.91 2.9023-3.2519 0.48398-6.4504 1.3055-9.7676 1.3242-0.42666 3e-3 -0.86274 0.05169-1.2773 0.15039-2.4635 0.58691-4.9259 1.1822-7.3887 1.7754v1.5176c5.5897-1.2764 11.31-1.6936 16.961-2.5645 4.9651-0.76397 9.9027-1.4633 14.523-3.6992 1.7532-0.84796 3.8677-1.0358 5.8477-1.3144 3.5812-0.50264 7.0062-1.4954 10.33-2.8848-0.69801-0.1119-1.4377-0.42783-2.0879-0.30079h-0.001953z"/><path transform="matrix(1 0 0 1 -.00093021 0)" d="m70.623 149.69c-0.69048 0.10866-1.3648 0.35215-2.0273 0.63281-2.1412 0.90664-4.3657 1.3147-6.6816 1.2773-2.4546-0.04-4.8249 0.40848-7.1328 1.2324-2.2999 0.81998-4.6481 1.4053-7.1133 1.3613 1.0587 0.49598 2.1786 0.86004 3.3398 0.66407 5.6651-0.95732 11.339-1.8812 16.971-3.0117 1.6559-0.332 3.183-1.3006 4.7695-1.9766-0.72864-0.26199-1.4345-0.28835-2.125-0.17968z"/><path transform="matrix(1 0 0 1 -.00093021 0)" d="m89.652 144.53c-4.7545 0.66664-9.419 1.622-13.449 4.4727 3.8639-0.97864 7.7388-1.917 11.584-2.9609 1.084-0.29465 2.0819-0.90061 3.1191-1.3633-0.41866-0.0547-0.85126-0.20577-1.2539-0.14844z"/><path transform="matrix(1 0 0 1 -.00093021 0)" d="m101.28 141.22c-2.8306 0.15599-5.5027 0.78509-7.7812 2.5957h2.5938c0.28932 0.30266 0.57662 0.30079 0.86328-0.00195 1.4413-0.86398 2.883-1.7298 4.3242-2.5938z"/></g><g fill="#8f9194" stroke-width=".99997"><path transform="matrix(1 0 0 1 -.00093021 0)" d="m62.363 143.81c-3.0466-0.12534-5.997 0.32174-8.8809 1.3457-2.1812 0.77465-4.4449 1.1758-6.7715 0.78516-1.7492-0.29466-3.4263 0.05022-5.1035 0.46484 2.5932 1.204 5.3551 0.83479 8.0684 0.82813 3.6359-8e-3 7.0794-1.1345 10.549-2.0332 0.77997-0.20263 1.4294-0.91466 2.1387-1.3906z"/><path transform="matrix(1 0 0 1 -.00093021 0)" d="m39.883 146.41c-2.7306-0.10667-5.3249 0.37253-7.7461 1.7031-1.5026 0.82531-3.0917 1.3531-4.8477 1.2598-1.2107-0.0653-2.176 0.47804-2.9707 1.3594 4.4918 0.37197 8.5523-1.4978 12.781-2.4805 1.12-0.26133 2.0072-0.99783 2.7832-1.8418z"/><path transform="matrix(1 0 0 1 -.00093021 0)" d="m11.023 153.33c-2.458 0.78077-4.9905 0.89214-7.5391 0.88281-1.2089-0.00448-2.3712 0.15217-3.4844 0.48243v1.0195c3.0279-0.2571 6.0558-0.51421 9.084-0.76953 1.7479-0.148 3.3675-0.67863 4.8555-1.6133-0.97132-0.31844-1.9507-0.30658-2.9141-0.00195h-0.001953z"/><path transform="matrix(1 0 0 1 -.00093021 0)" d="m129.82 123.92c-1.3586 0.39597-2.7014 0.86729-4.0801 1.1699-3.0586 0.67065-5.4734 2.2336-7.1641 4.8828 2.6332-1.128 5.2826-2.2239 7.8945-3.3984 1.3212-0.59598 2.4284-1.525 3.3496-2.6543z"/><path transform="matrix(1 0 0 1 -.00093021 0)" d="m90.041 138.63c-4.3746 0.61064-8.7519 1.1989-13.121 1.8496-0.8333 0.124-1.63 0.48753-2.4434 0.74219 3.5399 0.048 7.0716-0.05482 10.582-0.55078 1.8279-0.25866 3.6611-0.53171 4.9824-2.041z"/><path transform="matrix(1 0 0 1 -.00093021 0)" d="m73.613 141.22c-1.8559 0.0187-3.7137 0.0172-5.5684 0.0625-2.2359 0.0547-4.2099 0.73001-5.6738 2.5312 2.4252-0.65599 4.8136-1.4522 7.4082-1.1562 1.46 0.16665 2.7113-0.5402 3.834-1.4375z"/><path transform="matrix(1 0 0 1 -.00093021 0)" d="m110.79 132.57c-2.6106 0.0547-4.922 0.90175-6.918 2.5938 2.5066-0.33199 4.9006-0.96043 6.918-2.5938z"/><path transform="matrix(1 0 0 1 -.00093021 0)" d="m115.12 130.84c-1.6119 0.14934-3.0763 0.67047-4.3242 1.7305 1.6119-0.14933 3.0763-0.67048 4.3242-1.7305z"/><path transform="matrix(1 0 0 1 -.00093021 0)" d="m19.125 152.46c-1.4412 0.28799-2.883 0.57591-4.3242 0.86523 1.6799 0.90664 3.1057 0.53472 4.3242-0.86523z"/><path transform="matrix(1 0 0 1 -.00093021 0)" d="m99.551 136.03c-1.4972 5e-3 -2.967 0.15459-4.3242 0.86523 1.4972-5e-3 2.967-0.15459 4.3242-0.86523z"/><path transform="matrix(1 0 0 1 -.00093021 0)" d="m22.584 150.73c-1.368 0.14667-2.5496 0.66527-3.459 1.7266 1.2853-0.31065 2.4496-0.8626 3.459-1.7266z"/></g><g stroke-width=".99997"><path transform="matrix(1 0 0 1 -.00093021 0)" d="m85.012 156.39c-0.843 0.0258-1.7372 0.40172-2.7324 0.84571-8.1557 3.6399-16.331 7.238-24.85 10.016-2.1106 0.68798-4.358 0.67877-6.3672 1.6348-0.42798 0.0987-0.84734 0.24002-1.25 0.41601-0.60131 0.23466-1.1936 0.49767-1.7949 0.73633-0.40532 0.128-0.8065 0.27164-1.2012 0.43164-9.2637 4.6945-19.223 7.8042-28.494 12.486-2.0679 1.044-4.276-0.28064-6.3652 0.38867-0.38399 0.16399-0.7635 0.34308-1.1328 0.53907-2.9159 1.008-5.5784 2.7411-8.7383 3.0664-0.40399 0.16666-0.81146 0.31205-1.2168 0.47071-0.27876 0.14094-0.58566 0.21773-0.86914 0.34765v5.9512c3.4742-1.2274 6.74-2.9781 10.096-4.4883 2.4946-1.124 4.9559-2.2873 7.5625-3.1445 2.1852-0.7173 4.3369-1.5531 6.4648-2.4316 3.0573-1.2613 6.1199-2.3913 9.373-3.1738 4.1879-1.0053 8.001-3.1816 11.928-4.9668 0.91597-0.41597 1.7675-1.1404 2.7168-1.2871 4.7611-0.73732 8.9373-3.1604 13.471-4.5391 1.368-0.41598 2.7092-0.98085 3.9824-1.6328 1.5466-0.7933 3.0806-1.5555 4.8086-1.8555 0.28266-0.0493 0.59418-0.0942 0.82617-0.24219 3.4399-2.2066 7.3868-3.1192 11.182-4.4258 2.1079-0.72664 3.8153-1.9928 5.0312-3.8848-0.79464-0.9573-1.5867-1.2816-2.4297-1.2559v-0.00196z" fill="#68696b"/><path transform="matrix(1 0 0 1 -.00093021 0)" d="m51.834 165.82c-0.94591-0.0355-1.9519 0.32269-2.8926 0.66602-12.689 4.6318-25.243 9.627-37.92 14.295-3.6758 1.3539-7.3402 2.7457-11.021 4.084v5.082c0.62703-0.35384 1.2576-0.69921 1.832-1.1562 0.28799 0 0.57334 1e-3 0.86133 0 2.8932-1.1267 5.9425-1.867 8.6504-3.459 0.28665-1e-3 0.57529-0.00291 0.86328-0.00391 11.971-4.2238 23.468-9.6622 35.463-13.83l0.85938-0.00391c0.45066-0.53997 1.2718-0.33665 1.7305-0.86328v0.00195c1.3-1.128 4.0888-0.2946 4.1074-3.1172-0.70131-1.2286-1.5873-1.6579-2.5332-1.6934v-0.00196z" fill="#707274"/><path transform="matrix(1 0 0 1 -.00093021 0)" d="m106.47 142.09c-1.4986 0.41155-3.009 0.78657-4.4941 1.2422-1.6466 0.50531-3.2909 0.87441-5.0176 0.48242-0.28799 1e-3 -0.57529 5.2e-4 -0.86328 0.00195-1.1347 1.412-2.6758 2.1062-4.373 2.6035-10.083 2.9559-20.141 5.9985-30.246 8.873-2.4746 0.7053-5.0824 1.0264-7.6543 1.2891-6.8931 0.70263-13.665 2.0398-20.387 3.6758-0.97597 0.23733-1.9801 0.45581-2.8867 0.86914-2.2546 1.0293-4.5933 1.5748-7.0586 1.8574-1.6906 0.19332-3.3023 0.99784-4.9902 1.3125-3.8212 0.71065-7.6464 1.5212-11.508 1.8691-2.3773 0.21386-4.682 0.69053-6.9883 1.1621v7.4668c3.4317-1.0514 7.1557-1.2134 10.678-1.7695 8.5344-1.348 16.853-3.4816 24.896-6.4082 7.937-2.8866 16.325-3.6527 24.312-6.1699 3.8959-1.228 7.5729-3.0067 11.498-4.1387 7.0318-2.0292 13.745-5.1949 21.125-5.9629 1.4906-0.15466 2.4376-0.69898 2.7109-2.2109 1.0787-1.6039 2.6751-2.3667 4.4805-2.8613 2.4337-0.66639 4.7941-1.5194 6.7656-3.1836z" fill="#848688"/><path transform="matrix(1 0 0 1 -.00093021 0)" d="m95.221 148.13c-3.7386 0.38799-7.3849 1.0809-10.895 2.5488-2.3799 0.99597-4.8758 1.8227-7.3984 2.3359-2.5706 0.52264-4.9441 1.4973-7.3906 2.3398-7.901 2.7212-15.852 5.2922-24.176 6.4375-3.5959 0.49464-7.0162 1.5371-10.346 2.9863-1.7052 0.74263-3.5251 1.2853-5.3438 1.6973-6.7105 1.5212-13.298 3.6244-20.201 4.2617-1.1347 0.104-2.2629 0.4347-3.3574 0.77734-1.5266 0.47599-3.0714 0.82299-4.666 0.82032-0.51266-9.5e-4 -0.95813 0.18288-1.4473 0.24609v8.916c0.42987-0.16332 0.86817-0.30857 1.2969-0.47461 5.2905-2.0506 10.839-4.4076 16.771-4.7676 1.004-0.0613 1.8925-0.58835 2.8125-0.95898 9.0024-3.6266 18.442-5.8599 27.688-8.6758 7.9797-1.7586 15.791-3.9602 22.98-8.0801 3.0186-1.7292 6.705-1.6814 10.064-2.416 4.9318-1.0787 8.6485-4.4027 13.188-6.1094 0.60798-0.22797 0.84514-1.1183 0.42383-1.877l-0.003906-0.00781z" fill="#7f8184"/><path transform="matrix(1 0 0 1 -.00093021 0)" d="m149.28 129.82c-0.71548 0.0398-1.4312 0.13745-2.1465 0.18945-3.2492 0.9293-6.3798 1.533-9.4277 3.709-2.6386 1.8852-6.5345 2.65-9.9024 3.8047-9.457 3.2426-18.486 7.5576-27.842 10.963-9.1197 3.3199-18.001 7.2863-27.449 9.8516-5.7505 1.56-10.933 5.1649-16.916 6.5742-1.0627 0.25066-2.2442 1.4707-1.8789 3.1094-1.1973 0.80797-2.5297 1.4356-3.459 2.5996 0.8573-0.0187 1.7887 0.17752 2.5566-0.0918 3.7972-1.3387 7.5547-2.7987 11.322-4.2227 0.53864-0.20265 1.0457-0.52229 1.5977-0.65429 5.6558-1.3453 10.727-4.0792 15.881-6.6191 1.8466-0.91064 3.763-1.4273 5.8242-1.3887 2.4026-0.9413 4.8151-1.8621 7.207-2.8301 1.7252-0.69864 3.4187-1.4736 5.1387-2.1856 1.0547-0.43599 2.1006-1.0236 3.2031-1.1836 2.1812-0.316 4.1852-1.113 6.0664-2.125 7.3678-3.9626 15.365-6.331 23.117-9.3242 1.6039-0.61865 3.2397-1.1952 4.7637-1.9766 4.6278-2.3732 9.435-4.1823 14.594-4.9648 1.4719-0.22399 2.8511-0.52622 3.3711-2.1875-1.1573-0.29599-2.3153-0.5933-3.4727-0.89062-0.7173-0.17932-1.433-0.19608-2.1484-0.15625z" fill="#6e7072"/><path transform="matrix(1 0 0 1 -.00093021 0)" d="m144.74 129.67c-2.3331-0.0747-4.487 0.65707-6.459 2.2891-0.53598 0.44399-1.218 0.94767-1.8594 0.98633-2.5519 0.15598-4.5917 1.4691-6.7129 2.6504-0.74664 0.41465-1.5342 0.80844-2.3516 1.0352-6.6331 1.8399-12.765 5.0178-19.268 7.207-1.6159 0.54398-3.2154 1.2308-4.6914 2.0801-2.5519 1.468-5.2347 2.264-8.1719 2.2227-2.0306 1.0853-4.1047 2.0942-6.082 3.2715-3.8986 2.3239-8.2058 3.5519-12.576 4.3691-3.8919 0.72798-7.5002 1.9787-10.879 3.9746-1.8786 1.1093-3.8908 1.7948-6 2.3535-3.7506 0.99462-7.4456 2.2042-11.164 3.3242-4.5585 3.2812-10.207 3.3123-15.303 4.9629-9.201 2.9799-18.182 6.6073-27.494 9.2285-1.9477 0.54839-3.8249 1.2922-5.7285 1.9629v4.5449c0.33151-0.12424 0.65635-0.27757 0.99805-0.36133 6.0345-1.4827 11.665-4.09 17.484-6.1699 6.0985-2.1799 12.038-4.7186 18.01-7.1973 0.79197-0.32932 1.6326-0.62958 2.4766-0.74023 3.4812-0.45199 6.7247-1.6003 9.7832-3.2656 1.6346-0.89064 3.243-1.1123 4.9629-0.375 2.7906-2.1959 6.2202-2.9098 9.4668-4.0098 2.3266-0.78929 4.6001-1.6294 6.6641-2.9746 2.0732-1.352 4.4488-2.0343 6.75-2.793 5.4571-1.7972 10.748-4.0694 16.182-5.8613 5.7531-1.8972 11.215-4.3968 16.766-6.7207 8.5864-3.5959 17.264-6.9396 26.105-9.8555 0.27198-0.0907 0.58059-0.13173 0.80859-0.28907 3.3292-2.2826 7.2357-3.4431 10.676-5.5098-0.81764-0.20066-1.6148-0.31497-2.3926-0.33984z" fill="#7a7b7e"/><path transform="matrix(1 0 0 1 -.00093021 0)" d="m47.674 171.49c-4.6385 0.96131-9.169 2.2308-13.545 4.1094-4.8691 2.0906-9.8398 3.9466-14.779 5.8691-2.5439 0.99064-5.1067 1.9256-7.1387 3.8535 3.1932-0.128 6.1228-1.0544 9.1094-2.2598 6.2491-2.5212 12.262-5.609 18.693-7.7129 2.6959-0.88264 5.4055-1.9847 7.6602-3.8594z" fill="#6e7072"/><path transform="matrix(1 0 0 1 -.00093021 0)" d="m11.344 185.33c-3.0679 0.69197-6.1885 1.2451-8.6484 3.457 3.3506 0.0173 6.2365-1.1265 8.6484-3.457z" fill="#6e7072"/><path transform="matrix(1 0 0 1 -.00093021 0)" d="m48.533 165.44c-2.9039 0.15731-5.657 1.0267-8.4023 1.8652-3.7146 1.1333-7.3771 2.4333-11.078 3.6133-0.95197 0.30399-1.9713 0.39478-2.9473 0.63477-0.97331 0.23866-2.039 0.35957-2.875 0.85156-2.9066 1.7119-6.1204 2.4008-9.3203 3.2715-4.6824 1.2752-9.2682 2.9045-13.91 4.3359v2.9902c3.5002-1.191 7.0028-2.3742 10.504-3.5625 2.0413-0.69199 4.0946-1.3482 6.1426-2.0215 0.68265-0.224 1.4163-0.3549 2.043-0.68554 5.3865-2.8412 11.376-4.0452 16.98-6.2891 1.4986-0.59997 3.1001-0.58922 4.6641-0.81054 3.2066-0.45465 6.2113-1.3401 8.1992-4.1934z" fill="#7b7d7f"/></g></svg>
